<svg xmlns="http://www.w3.org/2000/svg" xmlns:xlink="http://www.w3.org/1999/xlink" width="500" zoomAndPan="magnify" viewBox="0 0 375 374.999991" height="500" preserveAspectRatio="xMidYMid meet" version="1.0"><defs><clipPath id="1d73db3021"><path d="M 87.492188 55.476562 L 287.742188 55.476562 L 287.742188 319.476562 L 87.492188 319.476562 Z M 87.492188 55.476562 " clip-rule="nonzero"/></clipPath><clipPath id="b1b794917d"><path d="M 104 55.476562 L 274 55.476562 L 274 90 L 104 90 Z M 104 55.476562 " clip-rule="nonzero"/></clipPath></defs><g clip-path="url(#1d73db3021)"><path fill="#bd00ff" d="M 287.433594 305.472656 C 287.722656 309.066406 286.496094 312.609375 284.050781 315.253906 C 281.605469 317.902344 278.167969 319.410156 274.5625 319.410156 L 100.464844 319.410156 C 96.984375 319.410156 93.648438 318.007812 91.21875 315.511719 C 88.785156 313.019531 87.464844 309.652344 87.554688 306.183594 C 88.332031 278.195312 91.082031 213.117188 100.277344 183.375 C 114.652344 136.890625 112.886719 55.546875 112.886719 55.546875 L 267.613281 55.546875 C 267.613281 55.546875 266.613281 122.535156 274.828125 177.222656 C 279.445312 207.984375 285.101562 276.097656 287.433594 305.472656 Z M 287.433594 305.472656 " fill-opacity="1" fill-rule="evenodd"/></g><g clip-path="url(#b1b794917d)"><path fill="#f41010" d="M 114.210938 55.542969 L 108.933594 55.542969 C 106.3125 55.542969 104.191406 57.664062 104.191406 60.28125 L 104.191406 84.304688 C 104.191406 86.917969 106.3125 89.039062 108.933594 89.039062 L 114.207031 89.039062 C 114.132812 87.378906 113.984375 83.722656 113.875 79.375 C 113.820312 77.136719 113.769531 74.714844 113.773438 72.292969 C 113.777344 69.871094 113.84375 67.449219 113.898438 65.210938 C 114.007812 60.863281 114.144531 57.207031 114.210938 55.542969 Z M 164.972656 55.542969 L 115.394531 55.542969 L 116.074219 55.542969 C 116.140625 57.207031 116.273438 60.863281 116.382812 65.210938 C 116.441406 67.449219 116.503906 69.871094 116.507812 72.292969 C 116.511719 74.714844 116.464844 77.136719 116.40625 79.375 C 116.300781 83.722656 116.152344 87.378906 116.078125 89.039062 L 126.527344 89.039062 C 126.453125 87.378906 126.304688 83.722656 126.195312 79.375 C 126.140625 77.136719 126.09375 74.714844 126.09375 72.292969 C 126.101562 69.871094 126.164062 67.449219 126.21875 65.210938 C 126.332031 60.863281 126.464844 57.207031 126.53125 55.542969 L 128.394531 55.542969 C 128.460938 57.207031 128.597656 60.863281 128.707031 65.210938 C 128.761719 67.449219 128.824219 69.871094 128.828125 72.292969 C 128.835938 74.714844 128.785156 77.136719 128.730469 79.375 C 128.621094 83.722656 128.472656 87.378906 128.398438 89.039062 L 138.847656 89.039062 C 138.773438 87.378906 138.625 83.722656 138.519531 79.375 C 138.460938 77.136719 138.414062 74.714844 138.417969 72.292969 C 138.421875 69.871094 138.484375 67.449219 138.542969 65.210938 C 138.652344 60.863281 138.785156 57.207031 138.851562 55.542969 L 140.714844 55.542969 C 140.78125 57.207031 140.917969 60.863281 141.027344 65.210938 C 141.082031 67.449219 141.148438 69.871094 141.152344 72.292969 C 141.15625 74.714844 141.105469 77.136719 141.050781 79.375 C 140.941406 83.722656 140.792969 87.378906 140.71875 89.039062 L 139.578125 89.039062 L 151.167969 89.039062 C 151.09375 87.378906 150.945312 83.722656 150.839844 79.375 C 150.785156 77.136719 150.734375 74.714844 150.738281 72.292969 C 150.742188 69.871094 150.804688 67.449219 150.863281 65.210938 C 150.972656 60.863281 151.109375 57.207031 151.171875 55.542969 L 153.035156 55.542969 C 153.101562 57.207031 153.238281 60.863281 153.347656 65.210938 C 153.402344 67.449219 153.46875 69.871094 153.472656 72.292969 C 153.476562 74.714844 153.425781 77.136719 153.371094 79.375 C 153.261719 83.722656 153.113281 87.378906 153.042969 89.039062 L 151.066406 89.039062 L 163.488281 89.039062 C 163.417969 87.378906 163.265625 83.722656 163.160156 79.375 C 163.105469 77.136719 163.054688 74.714844 163.058594 72.292969 C 163.0625 69.871094 163.128906 67.449219 163.183594 65.210938 C 163.292969 60.863281 163.429688 57.207031 163.496094 55.542969 Z M 178.273438 55.542969 L 165.359375 55.542969 C 165.421875 57.207031 165.558594 60.863281 165.667969 65.210938 C 165.726562 67.449219 165.789062 69.871094 165.792969 72.292969 C 165.796875 74.714844 165.746094 77.136719 165.691406 79.375 C 165.585938 83.722656 165.433594 87.378906 165.363281 89.039062 L 175.808594 89.039062 C 175.738281 87.378906 175.589844 83.722656 175.480469 79.375 C 175.425781 77.136719 175.375 74.714844 175.378906 72.292969 C 175.382812 69.871094 175.449219 67.449219 175.503906 65.210938 C 175.613281 60.863281 175.75 57.207031 175.816406 55.542969 Z M 188.136719 55.542969 L 177.679688 55.542969 C 177.742188 57.207031 177.878906 60.863281 177.988281 65.210938 C 178.046875 67.449219 178.109375 69.871094 178.113281 72.292969 C 178.117188 74.714844 178.070312 77.136719 178.011719 79.375 C 177.90625 83.722656 177.757812 87.378906 177.683594 89.039062 L 188.132812 89.039062 C 188.058594 87.378906 187.910156 83.722656 187.800781 79.375 C 187.746094 77.136719 187.699219 74.714844 187.703125 72.292969 C 187.707031 69.871094 187.769531 67.449219 187.824219 65.210938 C 187.9375 60.863281 188.070312 57.207031 188.136719 55.542969 Z M 269.203125 55.542969 L 190 55.542969 C 190.066406 57.207031 190.199219 60.863281 190.308594 65.210938 C 190.367188 67.449219 190.429688 69.871094 190.433594 72.292969 C 190.4375 74.714844 190.390625 77.136719 190.335938 79.375 C 190.226562 83.722656 190.078125 87.378906 190.003906 89.039062 L 200.453125 89.039062 C 200.378906 87.378906 200.230469 83.722656 200.125 79.375 C 200.066406 77.136719 200.019531 74.714844 200.023438 72.292969 C 200.027344 69.871094 200.089844 67.449219 200.148438 65.210938 C 200.257812 60.863281 200.390625 57.207031 200.457031 55.542969 L 202.320312 55.542969 C 202.386719 57.207031 202.523438 60.863281 202.632812 65.210938 C 202.6875 67.449219 202.753906 69.871094 202.757812 72.292969 C 202.761719 74.714844 202.710938 77.136719 202.65625 79.375 C 202.546875 83.722656 202.398438 87.378906 202.324219 89.039062 L 200.453125 89.039062 L 212.773438 89.039062 C 212.699219 87.378906 212.550781 83.722656 212.445312 79.375 C 212.390625 77.136719 212.339844 74.714844 212.34375 72.292969 C 212.347656 69.871094 212.410156 67.449219 212.46875 65.210938 C 212.578125 60.863281 212.714844 57.207031 212.777344 55.542969 L 214.640625 55.542969 C 214.707031 57.207031 214.84375 60.863281 214.953125 65.210938 C 215.007812 67.449219 215.074219 69.871094 215.078125 72.292969 C 215.082031 74.714844 215.03125 77.136719 214.976562 79.375 C 214.871094 83.722656 214.71875 87.378906 214.648438 89.039062 L 212.773438 89.039062 L 225.09375 89.039062 C 225.023438 87.378906 224.871094 83.722656 224.765625 79.375 C 224.710938 77.136719 224.660156 74.714844 224.664062 72.292969 C 224.667969 69.871094 224.734375 67.449219 224.789062 65.210938 C 224.898438 60.863281 225.035156 57.207031 225.101562 55.542969 L 226.964844 55.542969 C 227.027344 57.207031 227.164062 60.863281 227.273438 65.210938 C 227.332031 67.449219 227.394531 69.871094 227.398438 72.292969 C 227.402344 74.714844 227.351562 77.136719 227.296875 79.375 C 227.191406 83.722656 227.042969 87.378906 226.96875 89.039062 L 237.417969 89.039062 C 237.34375 87.378906 237.195312 83.722656 237.085938 79.375 C 237.03125 77.136719 236.980469 74.714844 236.984375 72.292969 C 236.988281 69.871094 237.054688 67.449219 237.109375 65.210938 C 237.21875 60.863281 237.355469 57.207031 237.421875 55.542969 L 239.285156 55.542969 C 239.347656 57.207031 239.484375 60.863281 239.59375 65.210938 C 239.652344 67.449219 239.714844 69.871094 239.71875 72.292969 C 239.722656 74.714844 239.675781 77.136719 239.617188 79.375 C 239.511719 83.722656 239.363281 87.378906 239.289062 89.039062 L 249.738281 89.039062 C 249.664062 87.378906 249.515625 83.722656 249.40625 79.375 C 249.351562 77.136719 249.300781 74.714844 249.308594 72.292969 C 249.3125 69.871094 249.375 67.449219 249.429688 65.210938 C 249.539062 60.863281 249.675781 57.207031 249.742188 55.542969 L 251.605469 55.542969 C 251.671875 57.207031 251.804688 60.863281 251.917969 65.210938 C 251.972656 67.449219 252.035156 69.871094 252.039062 72.292969 C 252.042969 74.714844 251.996094 77.136719 251.941406 79.375 C 251.832031 83.722656 251.683594 87.378906 251.609375 89.039062 L 262.058594 89.039062 C 261.984375 87.378906 261.835938 83.722656 261.730469 79.375 C 261.671875 77.136719 261.625 74.714844 261.628906 72.292969 C 261.632812 69.871094 261.695312 67.449219 261.753906 65.210938 C 261.863281 60.863281 261.996094 57.207031 262.0625 55.542969 L 263.925781 55.542969 C 263.992188 57.207031 264.128906 60.863281 264.238281 65.210938 C 264.292969 67.449219 264.359375 69.871094 264.363281 72.292969 C 264.367188 74.714844 264.316406 77.136719 264.261719 79.375 C 264.152344 83.722656 264.003906 87.378906 263.929688 89.039062 L 269.203125 89.039062 C 271.824219 89.039062 273.945312 86.917969 273.945312 84.304688 L 273.945312 60.28125 C 273.945312 57.664062 271.824219 55.542969 269.203125 55.542969 Z M 269.203125 55.542969 " fill-opacity="1" fill-rule="evenodd"/></g><path fill="#38522d" d="M 148.554688 174.570312 C 147.699219 167.859375 145.882812 148.632812 152.300781 144.082031 C 159.039062 139.304688 170.699219 152.1875 173.5625 158.667969 C 178.867188 157.195312 184.621094 156.386719 190.632812 156.386719 C 196.378906 156.386719 201.890625 157.125 207 158.476562 C 210.636719 151.746094 221.320312 140.628906 227.652344 145.121094 C 233.433594 149.21875 232.535156 165.21875 231.675781 173.261719 C 236.035156 178.511719 238.546875 184.667969 238.546875 191.25 C 238.546875 210.492188 217.078125 226.113281 190.632812 226.113281 C 164.1875 226.113281 142.714844 210.492188 142.714844 191.25 C 142.714844 185.210938 144.832031 179.527344 148.554688 174.570312 Z M 148.554688 174.570312 " fill-opacity="1" fill-rule="evenodd"/><path fill="#ffcb94" d="M 219.507812 207.75 C 231.125 206.660156 238.9375 210.304688 248.910156 215.039062 C 249.59375 215.363281 250.414062 215.074219 250.734375 214.390625 C 251.058594 213.710938 250.769531 212.894531 250.085938 212.570312 C 239.632812 207.609375 231.425781 203.886719 219.253906 205.027344 C 218.5 205.097656 217.949219 205.765625 218.019531 206.519531 C 218.089844 207.269531 218.757812 207.820312 219.507812 207.75 Z M 155.699219 203.125 L 155.632812 203.125 C 145.730469 203.125 138.292969 206.523438 129.125 210.871094 C 128.441406 211.195312 128.152344 212.011719 128.476562 212.695312 C 128.707031 213.183594 129.195312 213.472656 129.707031 213.472656 L 129.722656 213.472656 C 129.914062 213.472656 130.113281 213.429688 130.300781 213.339844 C 139.066406 209.183594 146.160156 205.863281 155.636719 205.859375 L 155.703125 205.859375 C 156.988281 205.859375 158.316406 205.921875 159.703125 206.054688 C 159.742188 206.058594 159.785156 206.058594 159.824219 206.058594 L 159.839844 206.058594 C 160.535156 206.054688 161.125 205.523438 161.191406 204.820312 C 161.261719 204.070312 160.710938 203.402344 159.957031 203.332031 C 158.484375 203.191406 157.066406 203.125 155.699219 203.125 Z M 220.332031 198.503906 C 230.597656 196.472656 240.859375 197.140625 251.125 200.511719 C 251.84375 200.746094 252.617188 200.355469 252.855469 199.640625 C 253.089844 198.921875 252.699219 198.148438 251.980469 197.914062 C 241.253906 194.394531 230.527344 193.695312 219.800781 195.820312 C 219.058594 195.96875 218.578125 196.6875 218.722656 197.425781 C 218.871094 198.167969 219.589844 198.648438 220.332031 198.503906 Z M 147.46875 192.921875 L 147.34375 192.921875 C 140.640625 192.917969 133.933594 194.015625 127.230469 196.214844 C 126.511719 196.449219 126.121094 197.222656 126.359375 197.941406 C 126.546875 198.519531 127.085938 198.882812 127.664062 198.882812 L 127.679688 198.882812 C 127.8125 198.878906 127.949219 198.855469 128.085938 198.8125 C 134.5 196.707031 140.917969 195.65625 147.332031 195.660156 L 147.453125 195.660156 C 151.261719 195.667969 155.070312 196.050781 158.878906 196.804688 C 158.964844 196.820312 159.050781 196.832031 159.136719 196.832031 L 159.15625 196.832031 C 159.792969 196.828125 160.359375 196.375 160.488281 195.730469 C 160.632812 194.988281 160.152344 194.269531 159.410156 194.121094 C 155.429688 193.335938 151.449219 192.933594 147.46875 192.921875 Z M 220 189.152344 C 230.433594 183.890625 241.105469 181.007812 252.140625 181.777344 C 252.894531 181.832031 253.550781 181.261719 253.601562 180.507812 C 253.65625 179.757812 253.085938 179.101562 252.332031 179.050781 C 240.808594 178.246094 229.660156 181.21875 218.765625 186.714844 C 218.089844 187.054688 217.820312 187.875 218.160156 188.550781 C 218.5 189.222656 219.324219 189.492188 220 189.152344 Z M 130.78125 177.222656 L 130.648438 177.222656 C 129.394531 177.222656 128.140625 177.265625 126.878906 177.351562 C 126.125 177.40625 125.554688 178.058594 125.609375 178.8125 C 125.65625 179.535156 126.265625 180.085938 126.980469 180.082031 L 127 180.082031 C 127.019531 180.082031 127.046875 180.082031 127.070312 180.078125 C 128.234375 180 129.394531 179.957031 130.550781 179.957031 L 130.675781 179.957031 C 140.4375 179.96875 149.917969 182.769531 159.210938 187.457031 C 159.414062 187.554688 159.625 187.605469 159.835938 187.601562 L 159.851562 187.601562 C 160.34375 187.59375 160.816406 187.320312 161.050781 186.851562 C 161.390625 186.179688 161.121094 185.355469 160.445312 185.015625 C 150.785156 180.144531 140.925781 177.253906 130.78125 177.222656 Z M 130.78125 177.222656 " fill-opacity="1" fill-rule="evenodd"/><path fill="#ffffff" d="M 159.203125 257.238281 C 159.554688 258.449219 159.855469 259.84375 160.09375 261.417969 C 160.335938 262.992188 160.496094 264.613281 160.570312 266.273438 C 160.644531 267.933594 160.621094 269.570312 160.5 271.1875 C 160.378906 272.800781 160.132812 274.25 159.761719 275.527344 C 159.613281 276.066406 159.292969 276.476562 158.800781 276.753906 C 158.308594 277.03125 157.792969 277.097656 157.253906 276.949219 C 156.972656 276.875 156.726562 276.753906 156.515625 276.585938 C 156.300781 276.417969 156.128906 276.21875 156 275.988281 C 155.867188 275.757812 155.785156 275.503906 155.746094 275.238281 C 155.710938 274.96875 155.730469 274.695312 155.804688 274.417969 C 155.933594 273.988281 156.039062 273.566406 156.125 273.148438 C 156.207031 272.734375 156.277344 272.3125 156.332031 271.882812 C 155.554688 272.085938 154.753906 272.195312 153.9375 272.203125 C 153.117188 272.214844 152.320312 272.113281 151.539062 271.914062 C 151.519531 272.296875 151.511719 272.691406 151.511719 273.09375 C 151.511719 273.496094 151.5 273.886719 151.484375 274.277344 C 151.464844 274.851562 151.261719 275.335938 150.871094 275.734375 C 150.480469 276.140625 149.996094 276.339844 149.421875 276.339844 C 149.140625 276.339844 148.878906 276.277344 148.625 276.167969 C 148.375 276.054688 148.15625 275.910156 147.972656 275.722656 C 147.785156 275.535156 147.636719 275.316406 147.527344 275.070312 C 147.414062 274.816406 147.359375 274.558594 147.359375 274.277344 C 147.394531 273.054688 147.421875 271.828125 147.441406 270.601562 C 147.460938 269.375 147.515625 268.152344 147.609375 266.929688 C 147.703125 265.480469 147.839844 264.027344 148.027344 262.570312 C 148.214844 261.117188 148.539062 259.691406 149.003906 258.300781 C 149.226562 257.667969 149.496094 257.015625 149.8125 256.339844 C 150.125 255.65625 150.507812 255.035156 150.953125 254.472656 C 151.398438 253.90625 151.914062 253.429688 152.5 253.039062 C 153.085938 252.652344 153.757812 252.433594 154.519531 252.398438 C 155.191406 252.359375 155.78125 252.492188 156.289062 252.789062 C 156.800781 253.085938 157.25 253.476562 157.628906 253.953125 C 158.011719 254.4375 158.324219 254.976562 158.578125 255.5625 C 158.828125 256.140625 159.035156 256.703125 159.203125 257.238281 Z M 171.746094 253.375 C 172.414062 253.375 172.910156 253.585938 173.238281 254.015625 C 173.5625 254.4375 173.722656 254.914062 173.722656 255.433594 C 173.722656 255.953125 173.5625 256.425781 173.238281 256.851562 C 172.910156 257.28125 172.414062 257.492188 171.746094 257.492188 L 169.40625 257.492188 L 169.40625 274.835938 C 169.40625 275.5 169.191406 276 168.761719 276.339844 C 168.335938 276.671875 167.867188 276.839844 167.355469 276.839844 C 166.84375 276.839844 166.375 276.671875 165.949219 276.339844 C 165.519531 276 165.308594 275.5 165.308594 274.835938 L 165.308594 257.378906 C 164.710938 257.324219 164.132812 257.257812 163.566406 257.183594 C 163 257.113281 162.4375 257.011719 161.878906 256.878906 C 161.601562 256.824219 161.359375 256.707031 161.15625 256.535156 C 160.949219 256.359375 160.78125 256.148438 160.652344 255.90625 C 160.523438 255.664062 160.433594 255.410156 160.386719 255.136719 C 160.339844 254.871094 160.355469 254.605469 160.429688 254.347656 C 160.578125 253.792969 160.902344 253.375 161.40625 253.109375 C 161.90625 252.839844 162.425781 252.773438 162.964844 252.898438 C 164.339844 253.121094 165.726562 253.253906 167.117188 253.304688 C 168.511719 253.351562 170.054688 253.375 171.746094 253.375 Z M 190.363281 252.789062 C 191.460938 252.773438 192.503906 253.019531 193.5 253.539062 C 194.492188 254.058594 195.378906 254.699219 196.160156 255.457031 C 196.363281 255.664062 196.519531 255.898438 196.621094 256.160156 C 196.722656 256.417969 196.773438 256.691406 196.773438 256.980469 C 196.773438 257.265625 196.71875 257.542969 196.605469 257.8125 C 196.496094 258.078125 196.347656 258.320312 196.160156 258.519531 C 195.734375 258.949219 195.242188 259.160156 194.683594 259.148438 C 194.125 259.140625 193.644531 258.929688 193.234375 258.519531 C 192.195312 257.480469 191.296875 257.09375 190.542969 257.355469 C 189.792969 257.613281 189.304688 258.398438 189.082031 259.722656 C 188.988281 260.257812 188.921875 260.855469 188.886719 261.515625 C 188.847656 262.171875 188.847656 262.855469 188.886719 263.5625 C 189.480469 263.523438 190.082031 263.484375 190.683594 263.445312 C 191.289062 263.410156 191.832031 263.34375 192.3125 263.253906 C 192.890625 263.164062 193.425781 263.242188 193.917969 263.488281 C 194.410156 263.742188 194.730469 264.171875 194.878906 264.789062 C 194.953125 265.046875 194.972656 265.320312 194.933594 265.609375 C 194.898438 265.890625 194.8125 266.171875 194.683594 266.429688 C 194.554688 266.6875 194.386719 266.90625 194.183594 267.09375 C 193.976562 267.28125 193.734375 267.402344 193.457031 267.457031 C 192.75 267.554688 192.0625 267.625 191.394531 267.679688 C 190.726562 267.734375 190.046875 267.789062 189.359375 267.847656 C 189.546875 268.851562 189.753906 269.851562 189.988281 270.867188 C 190.21875 271.875 190.476562 272.882812 190.753906 273.886719 C 190.902344 274.441406 190.832031 274.980469 190.542969 275.5 C 190.257812 276.019531 189.84375 276.355469 189.304688 276.5 C 188.746094 276.671875 188.21875 276.609375 187.714844 276.320312 C 187.214844 276.035156 186.890625 275.601562 186.738281 275.027344 C 186.3125 273.523438 185.941406 272.019531 185.625 270.515625 C 185.308594 269.015625 185.066406 267.484375 184.902344 265.929688 C 184.753906 264.496094 184.691406 263.042969 184.71875 261.558594 C 184.746094 260.070312 184.957031 258.632812 185.347656 257.238281 C 185.515625 256.628906 185.75 256.054688 186.058594 255.53125 C 186.363281 255 186.730469 254.535156 187.15625 254.125 C 187.585938 253.714844 188.0625 253.394531 188.59375 253.164062 C 189.121094 252.933594 189.714844 252.808594 190.363281 252.789062 Z M 142.007812 270.292969 C 142.433594 269.90625 142.9375 269.703125 143.511719 269.683594 C 144.089844 269.667969 144.589844 269.871094 145.015625 270.292969 C 145.425781 270.703125 145.640625 271.210938 145.65625 271.828125 C 145.675781 272.4375 145.460938 272.949219 145.015625 273.355469 C 144.3125 274.007812 143.542969 274.5625 142.71875 275.027344 C 141.890625 275.492188 141.03125 275.824219 140.140625 276.03125 C 139.246094 276.234375 138.335938 276.289062 137.40625 276.191406 C 136.480469 276.101562 135.570312 275.820312 134.675781 275.335938 C 133.601562 274.757812 132.683594 274.011719 131.929688 273.09375 C 131.179688 272.171875 130.597656 271.164062 130.191406 270.058594 C 129.78125 268.953125 129.535156 267.789062 129.453125 266.570312 C 129.367188 265.34375 129.453125 264.140625 129.703125 262.964844 C 129.953125 261.785156 130.371094 260.65625 130.957031 259.582031 C 131.542969 258.5 132.289062 257.558594 133.199219 256.738281 C 133.925781 256.09375 134.710938 255.5625 135.554688 255.136719 C 136.398438 254.722656 137.273438 254.445312 138.175781 254.304688 C 139.078125 254.167969 139.980469 254.179688 140.890625 254.347656 C 141.800781 254.515625 142.695312 254.855469 143.566406 255.375 C 143.976562 255.597656 144.261719 255.882812 144.417969 256.226562 C 144.574219 256.570312 144.640625 256.917969 144.613281 257.269531 C 144.585938 257.621094 144.480469 257.964844 144.292969 258.300781 C 144.105469 258.632812 143.871094 258.898438 143.582031 259.09375 C 143.292969 259.285156 142.960938 259.402344 142.578125 259.4375 C 142.199219 259.480469 141.8125 259.378906 141.421875 259.136719 C 140.53125 258.6875 139.636719 258.5 138.746094 258.582031 C 137.855469 258.652344 136.992188 259.082031 136.152344 259.859375 C 135.632812 260.34375 135.179688 260.976562 134.789062 261.761719 C 134.398438 262.554688 134.109375 263.390625 133.925781 264.285156 C 133.738281 265.171875 133.667969 266.074219 133.714844 266.984375 C 133.761719 267.890625 133.957031 268.710938 134.300781 269.449219 C 134.644531 270.179688 135.144531 270.777344 135.804688 271.242188 C 136.464844 271.707031 137.316406 271.9375 138.355469 271.9375 C 139.0625 271.9375 139.710938 271.78125 140.308594 271.464844 C 140.902344 271.152344 141.46875 270.757812 142.007812 270.292969 Z M 235.402344 254.316406 C 237.132812 253.894531 238.765625 253.980469 240.308594 254.582031 C 241.851562 255.1875 243.160156 256.214844 244.238281 257.664062 C 245.035156 258.773438 245.613281 260.042969 245.964844 261.460938 C 246.320312 262.878906 246.441406 264.316406 246.328125 265.773438 C 246.21875 267.234375 245.859375 268.628906 245.253906 269.960938 C 244.652344 271.296875 243.78125 272.429688 242.648438 273.355469 C 242.074219 273.800781 241.472656 274.195312 240.851562 274.527344 C 240.230469 274.859375 239.582031 275.117188 238.914062 275.304688 C 238.132812 275.527344 237.339844 275.699219 236.53125 275.820312 C 235.722656 275.941406 234.921875 275.914062 234.121094 275.753906 C 233.378906 275.601562 232.789062 275.304688 232.351562 274.859375 C 231.914062 274.417969 231.585938 273.894531 231.363281 273.300781 C 231.136719 272.710938 231.011719 272.074219 230.984375 271.394531 C 230.957031 270.714844 230.972656 270.050781 231.027344 269.40625 C 231.25 267.179688 231.5 264.972656 231.78125 262.792969 C 232.058594 260.613281 232.199219 258.410156 232.199219 256.183594 C 232.199219 255.71875 232.304688 255.324219 232.519531 255 C 232.730469 254.679688 233 254.4375 233.328125 254.292969 C 233.652344 254.140625 234 254.070312 234.371094 254.070312 C 234.742188 254.070312 235.085938 254.15625 235.402344 254.316406 Z M 213.941406 266.371094 C 213.886719 265.535156 213.890625 264.605469 213.957031 263.585938 C 214.019531 262.566406 214.164062 261.539062 214.386719 260.511719 C 214.613281 259.480469 214.933594 258.496094 215.351562 257.558594 C 215.769531 256.625 216.320312 255.832031 217.007812 255.179688 C 217.714844 254.5 218.507812 254.003906 219.390625 253.707031 C 220.273438 253.410156 221.164062 253.320312 222.066406 253.441406 C 222.96875 253.5625 223.851562 253.894531 224.714844 254.445312 C 225.578125 254.992188 226.355469 255.761719 227.042969 256.738281 C 227.730469 257.667969 228.234375 258.714844 228.5625 259.871094 C 228.886719 261.03125 229.078125 262.167969 229.132812 263.285156 C 229.167969 264.527344 229.085938 265.753906 228.882812 266.96875 C 228.675781 268.1875 228.34375 269.351562 227.878906 270.464844 C 227.488281 271.410156 226.96875 272.316406 226.316406 273.175781 C 225.667969 274.039062 224.878906 274.683594 223.949219 275.113281 C 223.371094 275.371094 222.769531 275.558594 222.136719 275.679688 C 221.503906 275.800781 220.871094 275.824219 220.242188 275.753906 C 219.609375 275.679688 218.996094 275.5 218.402344 275.210938 C 217.808594 274.917969 217.269531 274.507812 216.785156 273.972656 C 215.835938 272.949219 215.15625 271.765625 214.738281 270.421875 C 214.320312 269.074219 214.054688 267.726562 213.941406 266.371094 Z M 196.855469 266.371094 C 196.800781 265.535156 196.804688 264.605469 196.871094 263.585938 C 196.9375 262.566406 197.082031 261.539062 197.304688 260.511719 C 197.527344 259.480469 197.847656 258.496094 198.265625 257.558594 C 198.683594 256.625 199.234375 255.832031 199.921875 255.179688 C 200.628906 254.5 201.421875 254.003906 202.304688 253.707031 C 203.1875 253.410156 204.082031 253.320312 204.980469 253.441406 C 205.882812 253.5625 206.765625 253.894531 207.628906 254.445312 C 208.492188 254.992188 209.269531 255.761719 209.957031 256.738281 C 210.644531 257.667969 211.152344 258.714844 211.476562 259.871094 C 211.800781 261.03125 211.992188 262.167969 212.046875 263.285156 C 212.085938 264.527344 212 265.753906 211.796875 266.96875 C 211.59375 268.1875 211.257812 269.351562 210.792969 270.464844 C 210.402344 271.410156 209.882812 272.316406 209.230469 273.175781 C 208.582031 274.039062 207.792969 274.683594 206.863281 275.113281 C 206.285156 275.371094 205.683594 275.558594 205.050781 275.679688 C 204.417969 275.800781 203.789062 275.824219 203.15625 275.753906 C 202.523438 275.679688 201.910156 275.5 201.316406 275.210938 C 200.722656 274.917969 200.183594 274.507812 199.699219 273.972656 C 198.753906 272.949219 198.070312 271.765625 197.652344 270.421875 C 197.234375 269.074219 196.96875 267.726562 196.855469 266.371094 Z M 235.320312 271.519531 C 236.042969 271.519531 236.742188 271.410156 237.410156 271.199219 C 238.078125 270.988281 238.695312 270.679688 239.261719 270.28125 C 239.828125 269.882812 240.328125 269.402344 240.753906 268.832031 C 241.179688 268.269531 241.507812 267.625 241.730469 266.902344 C 241.898438 266.328125 242.007812 265.730469 242.0625 265.105469 C 242.121094 264.484375 242.105469 263.863281 242.023438 263.253906 C 241.9375 262.644531 241.78125 262.050781 241.546875 261.484375 C 241.316406 260.921875 241.015625 260.414062 240.644531 259.96875 C 240.179688 259.394531 239.597656 258.972656 238.902344 258.699219 C 238.203125 258.433594 237.363281 258.394531 236.378906 258.582031 C 236.265625 260.488281 236.082031 262.390625 235.820312 264.285156 C 235.5625 266.175781 235.367188 268.089844 235.234375 270.015625 C 235.21875 270.257812 235.203125 270.5 235.195312 270.742188 C 235.183594 270.980469 235.199219 271.222656 235.234375 271.464844 L 235.234375 271.519531 Z M 218.597656 266.289062 C 218.691406 267.957031 218.972656 269.21875 219.445312 270.070312 C 219.921875 270.929688 220.453125 271.363281 221.050781 271.378906 C 221.644531 271.398438 222.242188 271 222.847656 270.183594 C 223.449219 269.371094 223.9375 268.113281 224.308594 266.429688 C 224.421875 265.929688 224.492188 265.253906 224.519531 264.40625 C 224.546875 263.566406 224.492188 262.703125 224.351562 261.824219 C 224.210938 260.941406 223.980469 260.132812 223.65625 259.402344 C 223.328125 258.664062 222.878906 258.164062 222.304688 257.878906 C 221.96875 257.714844 221.632812 257.679688 221.300781 257.769531 C 220.964844 257.863281 220.644531 258.074219 220.339844 258.398438 C 220.03125 258.71875 219.753906 259.152344 219.503906 259.691406 C 219.25 260.230469 219.050781 260.867188 218.902344 261.609375 C 218.753906 262.371094 218.648438 263.144531 218.582031 263.925781 C 218.519531 264.703125 218.523438 265.488281 218.597656 266.289062 Z M 201.511719 266.289062 C 201.605469 267.957031 201.886719 269.21875 202.363281 270.070312 C 202.835938 270.929688 203.371094 271.363281 203.964844 271.378906 C 204.558594 271.398438 205.15625 271 205.761719 270.183594 C 206.367188 269.371094 206.851562 268.113281 207.226562 266.429688 C 207.335938 265.929688 207.40625 265.253906 207.433594 264.40625 C 207.460938 263.566406 207.40625 262.703125 207.265625 261.824219 C 207.128906 260.941406 206.894531 260.132812 206.570312 259.402344 C 206.246094 258.664062 205.792969 258.164062 205.21875 257.878906 C 204.882812 257.714844 204.550781 257.679688 204.214844 257.769531 C 203.878906 257.863281 203.558594 258.074219 203.253906 258.398438 C 202.945312 258.71875 202.667969 259.152344 202.417969 259.691406 C 202.167969 260.230469 201.96875 260.867188 201.816406 261.609375 C 201.667969 262.371094 201.5625 263.144531 201.496094 263.925781 C 201.433594 264.703125 201.4375 265.488281 201.511719 266.289062 Z M 151.679688 267.625 C 152.03125 267.832031 152.414062 267.96875 152.820312 268.054688 C 153.230469 268.136719 153.648438 268.167969 154.074219 268.136719 C 154.503906 268.109375 154.921875 268.035156 155.328125 267.914062 C 155.738281 267.792969 156.128906 267.632812 156.5 267.425781 C 156.480469 266.316406 156.421875 265.078125 156.320312 263.710938 C 156.214844 262.347656 156 261 155.664062 259.660156 C 155.292969 258.199219 154.851562 257.433594 154.339844 257.367188 C 153.828125 257.300781 153.332031 258.0625 152.847656 259.636719 C 152.71875 260.023438 152.574219 260.578125 152.417969 261.292969 C 152.257812 262.003906 152.121094 262.757812 152 263.542969 C 151.878906 264.335938 151.785156 265.101562 151.71875 265.84375 C 151.65625 266.585938 151.640625 267.179688 151.679688 267.625 Z M 151.679688 267.625 " fill-opacity="1" fill-rule="nonzero"/></svg>