<svg xmlns="http://www.w3.org/2000/svg" xmlns:xlink="http://www.w3.org/1999/xlink" width="500" zoomAndPan="magnify" viewBox="0 0 375 374.999991" height="500" preserveAspectRatio="xMidYMid meet" version="1.0"><defs><g/><clipPath id="4cf979421f"><path d="M 254 104 L 306.886719 104 L 306.886719 165.9375 L 254 165.9375 Z M 254 104 " clip-rule="nonzero"/></clipPath><clipPath id="09129995bd"><path d="M 118.394531 127.097656 L 272 127.097656 L 272 249.804688 L 118.394531 249.804688 Z M 118.394531 127.097656 " clip-rule="nonzero"/></clipPath></defs><path fill="#4f50bf" d="M 150.847656 77.363281 C 154.449219 76.539062 158.03125 78.703125 159.023438 82.21875 C 158.394531 78.617188 160.691406 75.117188 164.292969 74.296875 C 167.757812 73.507812 171.210938 75.484375 172.347656 78.773438 C 172.441406 78.988281 172.519531 79.230469 172.578125 79.5 C 172.667969 79.894531 172.714844 80.316406 172.722656 80.761719 C 172.742188 81.21875 172.714844 81.671875 172.644531 82.113281 C 171.746094 89.265625 162.753906 97.027344 162.453125 97.285156 L 162.453125 97.292969 C 162.453125 97.292969 162.449219 97.292969 162.445312 97.289062 C 162.445312 97.292969 162.441406 97.292969 162.441406 97.292969 L 162.441406 97.289062 C 162.058594 97.1875 150.597656 94.085938 146.695312 88.027344 C 146.441406 87.660156 146.21875 87.261719 146.039062 86.84375 C 145.855469 86.4375 145.714844 86.039062 145.625 85.640625 C 145.5625 85.375 145.53125 85.121094 145.519531 84.886719 C 145.121094 81.425781 147.378906 78.152344 150.847656 77.363281 Z M 165.519531 120.871094 C 179.027344 118.660156 187.34375 100.726562 184.09375 80.8125 C 180.84375 60.894531 167.257812 46.542969 153.753906 48.753906 C 140.246094 50.964844 131.929688 68.898438 135.179688 88.8125 C 138.429688 108.726562 152.011719 123.082031 165.519531 120.871094 " fill-opacity="1" fill-rule="nonzero"/><path fill="#4f50bf" d="M 218.59375 82.761719 C 218.644531 82.523438 218.714844 82.304688 218.796875 82.109375 C 219.777344 79.164062 222.84375 77.371094 225.945312 78.046875 C 229.164062 78.746094 231.246094 81.851562 230.71875 85.070312 C 231.570312 81.921875 234.75 79.960938 237.96875 80.660156 C 241.070312 81.335938 243.117188 84.238281 242.792969 87.328125 C 242.785156 87.539062 242.757812 87.765625 242.703125 88.007812 C 242.628906 88.359375 242.503906 88.71875 242.34375 89.082031 C 242.1875 89.457031 241.996094 89.816406 241.769531 90.144531 C 238.34375 95.585938 228.140625 98.457031 227.796875 98.550781 L 227.796875 98.554688 C 227.796875 98.554688 227.792969 98.554688 227.792969 98.550781 C 227.792969 98.550781 227.789062 98.550781 227.789062 98.550781 L 227.789062 98.546875 C 227.519531 98.320312 219.421875 91.472656 218.554688 85.097656 C 218.492188 84.703125 218.460938 84.300781 218.476562 83.890625 C 218.480469 83.492188 218.515625 83.113281 218.59375 82.761719 Z M 224.8125 120.871094 C 238.320312 123.082031 251.90625 108.726562 255.152344 88.8125 C 258.402344 68.898438 250.089844 50.964844 236.582031 48.753906 C 223.074219 46.542969 209.488281 60.894531 206.238281 80.8125 C 202.988281 100.726562 211.304688 118.660156 224.8125 120.871094 " fill-opacity="1" fill-rule="nonzero"/><g clip-path="url(#4cf979421f)"><path fill="#4f50bf" d="M 289.148438 136.867188 C 289.105469 137.019531 289.042969 137.175781 288.957031 137.34375 C 288.835938 137.585938 288.679688 137.824219 288.492188 138.058594 C 288.308594 138.300781 288.101562 138.527344 287.875 138.722656 C 284.34375 142.03125 276.375 142.183594 276.105469 142.1875 L 276.101562 142.1875 C 276.101562 142.1875 276.097656 142.1875 276.097656 142.1875 L 276.101562 142.183594 C 275.945312 141.964844 271.347656 135.4375 271.925781 130.632812 C 271.953125 130.332031 272.011719 130.035156 272.097656 129.738281 C 272.175781 129.449219 272.273438 129.183594 272.398438 128.941406 C 272.480469 128.777344 272.570312 128.632812 272.667969 128.503906 C 273.941406 126.546875 276.511719 125.824219 278.640625 126.90625 C 280.855469 128.027344 281.78125 130.683594 280.789062 132.925781 C 282.007812 130.796875 284.691406 129.972656 286.902344 131.09375 C 289.035156 132.175781 289.972656 134.679688 289.148438 136.867188 Z M 296.886719 106.4375 C 285.449219 99.824219 268.820312 107.234375 259.738281 122.984375 C 250.65625 138.734375 252.566406 156.863281 264 163.472656 C 275.4375 170.082031 292.066406 162.671875 301.148438 146.921875 C 310.226562 131.175781 308.320312 113.046875 296.886719 106.4375 " fill-opacity="1" fill-rule="nonzero"/></g><path fill="#4f50bf" d="M 105.664062 141.300781 C 105.355469 141.128906 105.0625 140.921875 104.785156 140.6875 C 104.511719 140.464844 104.273438 140.226562 104.070312 139.976562 C 103.933594 139.808594 103.820312 139.640625 103.734375 139.476562 C 102.238281 137.15625 102.703125 134.035156 104.894531 132.257812 C 107.167969 130.414062 110.472656 130.695312 112.40625 132.851562 C 110.703125 130.507812 111.113281 127.214844 113.390625 125.367188 C 115.578125 123.589844 118.726562 123.785156 120.683594 125.730469 C 120.824219 125.851562 120.964844 125.996094 121.101562 126.164062 C 121.304688 126.417969 121.484375 126.699219 121.648438 127.011719 C 121.820312 127.332031 121.957031 127.664062 122.0625 128 C 123.921875 133.40625 120.234375 142.078125 120.109375 142.367188 L 120.113281 142.371094 C 120.113281 142.371094 120.113281 142.371094 120.109375 142.371094 C 120.109375 142.375 120.105469 142.378906 120.105469 142.378906 L 120.105469 142.375 C 119.796875 142.433594 110.558594 144.246094 105.664062 141.300781 Z M 128.910156 161.53125 C 139.914062 155.164062 141.753906 137.71875 133.011719 122.558594 C 124.269531 107.402344 108.265625 100.269531 97.257812 106.632812 C 86.253906 112.996094 84.414062 130.441406 93.15625 145.601562 C 101.894531 160.761719 117.902344 167.890625 128.910156 161.53125 " fill-opacity="1" fill-rule="nonzero"/><g clip-path="url(#09129995bd)"><path fill="#4f50bf" d="M 231.132812 192.007812 C 230.917969 193.183594 230.585938 194.320312 230.15625 195.40625 C 223.730469 213.074219 196.367188 227.605469 195.449219 228.089844 L 195.449219 228.105469 C 195.449219 228.105469 195.441406 228.101562 195.4375 228.097656 C 195.429688 228.101562 195.421875 228.105469 195.421875 228.105469 L 195.421875 228.089844 C 194.503906 227.605469 167.140625 213.074219 160.71875 195.40625 C 160.285156 194.320312 159.953125 193.183594 159.738281 192.007812 C 159.503906 190.875 159.375 189.773438 159.375 188.714844 C 159.375 187.996094 159.433594 187.335938 159.546875 186.730469 C 160.53125 177.703125 168.171875 170.679688 177.449219 170.679688 C 187.082031 170.679688 194.949219 178.25 195.4375 187.773438 C 195.921875 178.25 203.789062 170.679688 213.421875 170.679688 C 222.699219 170.679688 230.335938 177.703125 231.324219 186.730469 C 231.4375 187.335938 231.492188 187.996094 231.492188 188.714844 C 231.492188 189.773438 231.367188 190.875 231.132812 192.007812 Z M 240.347656 167.285156 C 227.210938 154.128906 222.433594 127.222656 196.160156 127.222656 C 173.46875 127.222656 163.316406 141.574219 151.371094 164.296875 C 141.730469 182.640625 118.53125 188.214844 118.53125 216.316406 C 118.53125 236.050781 129.277344 249.804688 143.011719 249.804688 C 163.914062 249.804688 180.632812 242.03125 196.160156 242.03125 C 211.683594 242.03125 236.765625 249.804688 242.734375 249.804688 C 248.707031 249.804688 271.996094 245.617188 271.996094 220.503906 C 271.996094 195.386719 253.484375 180.441406 240.347656 167.285156 " fill-opacity="1" fill-rule="nonzero"/></g><g fill="#4f50bf" fill-opacity="1"><g transform="translate(67.364467, 317.078694)"><g><path d="M 0.835938 -17.246094 C 0.835938 -14.074219 1.058594 -11.90625 1.613281 -9.734375 C 1.726562 -9.402344 1.78125 -9.070312 1.835938 -8.789062 C 2.003906 -8.179688 2.113281 -7.621094 2.28125 -7.066406 C 2.613281 -6.121094 3.003906 -5.230469 3.5625 -4.507812 C 4.339844 -3.5625 5.0625 -2.613281 6.007812 -1.890625 C 6.84375 -1.222656 7.734375 -0.722656 8.789062 -0.390625 C 9.070312 -0.277344 9.347656 -0.222656 9.625 -0.109375 C 11.125 0.390625 12.628906 0.390625 14.074219 0 C 15.078125 -0.277344 15.910156 -0.835938 16.632812 -1.558594 C 17.136719 -1.945312 17.523438 -2.449219 17.96875 -2.894531 C 18.582031 -3.449219 18.972656 -4.0625 19.359375 -4.730469 C 19.640625 -5.230469 19.527344 -5.617188 19.136719 -6.007812 C 18.582031 -6.507812 17.96875 -7.011719 17.414062 -7.511719 C 17.078125 -7.789062 16.800781 -7.734375 16.523438 -7.398438 C 16.246094 -7.011719 15.910156 -6.675781 15.632812 -6.285156 C 15.1875 -5.617188 14.464844 -5.230469 13.851562 -4.785156 C 13.464844 -4.5625 13.128906 -4.507812 12.683594 -4.507812 C 11.570312 -4.507812 10.460938 -4.785156 9.402344 -5.117188 C 9.070312 -5.230469 8.734375 -5.398438 8.457031 -5.617188 C 7.34375 -6.566406 6.621094 -7.734375 6.175781 -9.179688 C 5.785156 -10.402344 5.617188 -11.738281 5.453125 -13.019531 C 5.339844 -14.296875 5.175781 -15.523438 5.230469 -16.746094 C 5.230469 -17.46875 5.285156 -18.191406 5.285156 -18.859375 C 5.398438 -20.585938 5.5625 -22.253906 5.953125 -23.867188 C 6.34375 -25.648438 6.898438 -27.371094 7.566406 -29.097656 C 7.84375 -29.765625 8.121094 -30.433594 8.402344 -31.101562 C 8.511719 -31.265625 8.566406 -31.433594 8.679688 -31.542969 C 9.125 -31.988281 9.511719 -32.433594 9.957031 -32.878906 C 10.460938 -33.378906 11.015625 -33.714844 11.738281 -33.601562 C 12.460938 -33.546875 13.128906 -33.492188 13.6875 -33.046875 C 14.132812 -32.65625 14.578125 -32.324219 15.019531 -31.988281 C 15.355469 -31.765625 15.632812 -31.488281 15.746094 -31.042969 C 15.800781 -30.878906 15.910156 -30.710938 16.078125 -30.542969 C 16.355469 -30.210938 16.746094 -30.210938 17.078125 -30.542969 C 17.523438 -30.933594 17.914062 -31.378906 18.359375 -31.824219 C 18.527344 -32.046875 18.691406 -32.269531 18.859375 -32.546875 C 19.027344 -32.824219 19.082031 -33.15625 18.914062 -33.4375 C 18.636719 -33.882812 18.359375 -34.328125 18.027344 -34.660156 C 17.414062 -35.328125 16.746094 -35.941406 16.132812 -36.550781 C 15.746094 -36.941406 15.300781 -37.332031 14.855469 -37.664062 C 14.296875 -38.109375 13.6875 -38.5 12.960938 -38.609375 C 11.738281 -38.886719 10.515625 -38.609375 9.402344 -38.164062 C 8.066406 -37.609375 7.066406 -36.664062 6.175781 -35.660156 C 5.5625 -34.992188 4.953125 -34.328125 4.617188 -33.546875 C 4.171875 -32.65625 3.78125 -31.824219 3.339844 -30.988281 C 2.78125 -29.820312 2.390625 -28.597656 2.113281 -27.371094 C 1.667969 -25.535156 1.390625 -23.757812 1.167969 -21.863281 C 0.945312 -20.027344 0.835938 -18.191406 0.835938 -17.246094 Z M 0.835938 -17.246094 "/></g></g></g><g fill="#4f50bf" fill-opacity="1"><g transform="translate(88.553083, 317.078694)"><g><path d="M 18.527344 0.5 C 18.527344 0.5 18.527344 0.554688 18.527344 0.554688 C 19.082031 0.5 19.640625 0.390625 20.140625 0.332031 C 20.472656 0.277344 20.808594 0.222656 21.085938 0.109375 C 21.476562 0 21.585938 -0.277344 21.53125 -0.722656 C 21.476562 -0.945312 21.417969 -1.222656 21.363281 -1.445312 C 21.253906 -2.28125 21.195312 -3.058594 21.03125 -3.894531 C 20.75 -5.675781 20.417969 -7.398438 20.085938 -9.179688 C 19.640625 -11.683594 19.25 -14.1875 18.75 -16.632812 C 18.304688 -18.859375 17.746094 -21.085938 17.136719 -23.253906 C 16.578125 -25.535156 16.023438 -27.816406 15.632812 -30.097656 C 15.1875 -32.546875 14.796875 -34.9375 14.410156 -37.332031 C 14.355469 -37.609375 14.296875 -37.832031 14.1875 -38.109375 C 14.074219 -38.5 13.910156 -38.609375 13.519531 -38.664062 C 12.851562 -38.664062 12.238281 -38.664062 11.628906 -38.5 C 11.460938 -38.386719 11.183594 -38.445312 11.015625 -38.386719 C 10.738281 -38.332031 10.515625 -38.332031 10.238281 -38.277344 C 9.957031 -38.222656 9.734375 -38.164062 9.457031 -38.164062 C 9.125 -38.164062 8.847656 -38 8.734375 -37.664062 C 8.625 -37.441406 8.566406 -37.164062 8.457031 -36.941406 C 8.121094 -35.828125 7.84375 -34.660156 7.621094 -33.492188 C 7.34375 -31.878906 6.953125 -30.265625 6.675781 -28.652344 C 6.398438 -26.984375 6.0625 -25.3125 5.675781 -23.644531 C 5.339844 -22.085938 5.007812 -20.472656 4.671875 -18.859375 C 4.449219 -17.46875 4.226562 -16.078125 3.949219 -14.6875 C 3.503906 -12.519531 2.949219 -10.347656 2.503906 -8.234375 C 2.003906 -5.839844 1.558594 -3.503906 1.113281 -1.113281 C 1.058594 -0.835938 0.945312 -0.554688 0.890625 -0.222656 C 0.835938 0.390625 1 0.554688 1.613281 0.667969 C 2.058594 0.722656 2.503906 0.777344 2.949219 0.777344 C 3.449219 0.835938 3.949219 0.835938 4.449219 0.835938 C 4.839844 0.835938 5.175781 0.613281 5.285156 0.222656 C 5.339844 0 5.398438 -0.167969 5.398438 -0.332031 C 5.617188 -1.390625 5.839844 -2.390625 6.121094 -3.394531 C 6.285156 -3.894531 6.453125 -4.449219 6.566406 -5.007812 C 6.789062 -5.785156 7.011719 -6.621094 7.234375 -7.398438 C 7.289062 -7.566406 7.34375 -7.675781 7.566406 -7.675781 C 7.898438 -7.734375 8.234375 -7.789062 8.566406 -7.789062 C 10.738281 -7.789062 12.960938 -7.789062 15.132812 -7.789062 C 15.355469 -7.789062 15.410156 -7.734375 15.464844 -7.511719 C 15.632812 -6.789062 15.746094 -6.007812 15.910156 -5.285156 C 16.355469 -3.503906 16.800781 -1.78125 17.246094 0 C 17.359375 0.332031 17.46875 0.5 17.859375 0.5 C 18.082031 0.5 18.304688 0.5 18.527344 0.5 Z M 11.183594 -28.152344 C 11.292969 -27.59375 11.40625 -27.039062 11.515625 -26.480469 C 11.90625 -24.144531 12.351562 -21.808594 12.90625 -19.472656 C 13.40625 -17.414062 13.851562 -15.300781 14.355469 -13.242188 C 14.410156 -12.960938 14.410156 -12.683594 14.464844 -12.460938 C 14.519531 -12.238281 14.410156 -12.183594 14.242188 -12.183594 C 13.910156 -12.183594 13.574219 -12.183594 13.296875 -12.183594 C 12.074219 -12.183594 10.960938 -12.128906 9.792969 -12.128906 C 9.234375 -12.128906 8.734375 -12.128906 8.179688 -12.128906 C 7.898438 -12.128906 7.84375 -12.128906 7.898438 -12.40625 C 8.066406 -13.183594 8.179688 -13.964844 8.34375 -14.6875 C 8.734375 -16.46875 9.125 -18.191406 9.511719 -19.972656 C 9.792969 -21.195312 10.125 -22.421875 10.347656 -23.699219 C 10.570312 -24.925781 10.738281 -26.148438 10.90625 -27.371094 C 10.960938 -27.648438 11.015625 -27.871094 11.125 -28.152344 C 11.125 -28.152344 11.183594 -28.152344 11.183594 -28.152344 Z M 11.183594 -28.152344 "/></g></g></g><g fill="#4f50bf" fill-opacity="1"><g transform="translate(110.965197, 317.078694)"><g><path d="M 7.511719 -27.871094 C 7.511719 -28.261719 7.511719 -28.597656 7.566406 -28.984375 C 7.675781 -29.320312 7.789062 -29.707031 7.898438 -30.042969 C 8.34375 -31.265625 9.179688 -32.210938 10.125 -33.15625 C 10.792969 -33.824219 11.683594 -33.882812 12.574219 -33.546875 C 13.351562 -33.214844 14.132812 -32.714844 14.855469 -32.269531 C 15.523438 -31.824219 16.191406 -31.378906 16.855469 -31.042969 C 17.136719 -30.878906 17.300781 -30.933594 17.523438 -31.15625 C 17.691406 -31.378906 17.859375 -31.601562 18.027344 -31.878906 C 18.46875 -32.601562 18.804688 -33.324219 19.195312 -33.992188 C 19.25 -34.160156 19.359375 -34.328125 19.417969 -34.4375 C 19.472656 -34.714844 19.417969 -34.882812 19.082031 -35.050781 C 18.804688 -35.160156 18.527344 -35.382812 18.359375 -35.660156 C 17.859375 -36.273438 17.300781 -36.828125 16.632812 -37.109375 C 16.523438 -37.164062 16.46875 -37.21875 16.414062 -37.273438 C 15.242188 -38.054688 14.019531 -38.664062 12.742188 -39.167969 C 11.792969 -39.445312 10.90625 -39.5 10.070312 -39.167969 C 9.625 -39 9.179688 -38.886719 8.847656 -38.664062 C 7.898438 -38.332031 7.066406 -37.886719 6.398438 -37.050781 C 6.285156 -36.886719 6.0625 -36.664062 5.898438 -36.496094 C 5.230469 -35.71875 4.617188 -34.882812 4.226562 -33.992188 C 3.949219 -33.660156 3.839844 -33.214844 3.726562 -32.769531 C 3.339844 -31.765625 3.003906 -30.710938 2.835938 -29.597656 C 2.78125 -28.707031 2.671875 -27.761719 2.726562 -26.816406 C 2.78125 -25.980469 2.894531 -25.089844 3.226562 -24.257812 C 3.617188 -22.921875 4.449219 -21.808594 5.5625 -20.863281 C 6.621094 -19.863281 7.734375 -19.082031 8.902344 -18.25 C 9.847656 -17.523438 10.792969 -16.914062 11.628906 -16.023438 C 11.90625 -15.6875 12.183594 -15.242188 12.574219 -14.855469 C 13.183594 -14.074219 13.6875 -13.296875 13.964844 -12.296875 C 14.242188 -11.40625 14.355469 -10.515625 14.519531 -9.625 C 14.796875 -8.566406 14.578125 -7.566406 14.132812 -6.566406 C 13.910156 -6.175781 13.574219 -5.730469 13.128906 -5.453125 C 12.074219 -4.671875 10.847656 -4.730469 9.679688 -5.175781 C 8.457031 -5.5625 7.511719 -6.285156 6.789062 -7.34375 C 6.675781 -7.398438 6.621094 -7.511719 6.507812 -7.566406 C 6.175781 -7.898438 5.839844 -8.234375 5.5625 -8.625 C 5.398438 -8.789062 5.339844 -8.957031 5.175781 -9.070312 C 4.953125 -9.234375 4.671875 -9.234375 4.449219 -9.070312 C 4.394531 -9.011719 4.285156 -8.902344 4.226562 -8.847656 C 3.726562 -8.457031 3.28125 -8.011719 2.835938 -7.621094 C 2.558594 -7.34375 2.28125 -7.011719 2.058594 -6.789062 C 1.835938 -6.566406 1.726562 -6.285156 1.890625 -5.953125 C 1.945312 -5.453125 2.167969 -5.007812 2.390625 -4.507812 C 2.894531 -3.449219 3.671875 -2.613281 4.617188 -1.890625 C 5.230469 -1.503906 5.898438 -1 6.507812 -0.613281 C 8.066406 0.445312 9.734375 0.722656 11.570312 0.554688 C 13.183594 0.332031 14.796875 -0.277344 16.132812 -1.222656 C 16.632812 -1.667969 17.191406 -2.003906 17.523438 -2.613281 C 17.804688 -3.058594 18.082031 -3.503906 18.359375 -4.0625 C 18.636719 -4.617188 18.804688 -5.285156 19.027344 -5.839844 C 19.472656 -6.730469 19.640625 -7.675781 19.640625 -8.625 C 19.640625 -9.011719 19.640625 -9.402344 19.640625 -9.847656 C 19.640625 -11.292969 19.417969 -12.683594 18.859375 -14.019531 C 18.582031 -14.6875 18.304688 -15.300781 17.914062 -15.96875 C 17.46875 -16.800781 16.914062 -17.46875 16.246094 -18.136719 C 16.132812 -18.25 16.023438 -18.359375 15.910156 -18.46875 C 15.132812 -19.472656 14.296875 -20.417969 13.242188 -21.085938 C 12.574219 -21.640625 11.90625 -22.199219 11.070312 -22.644531 C 10.847656 -22.753906 10.570312 -22.921875 10.347656 -23.144531 C 9.679688 -23.757812 9.011719 -24.367188 8.34375 -25.089844 C 8.066406 -25.371094 7.898438 -25.703125 7.734375 -26.203125 C 7.511719 -26.703125 7.453125 -27.316406 7.511719 -27.871094 Z M 7.511719 -27.871094 "/></g></g></g><g fill="#4f50bf" fill-opacity="1"><g transform="translate(132.320663, 317.078694)"><g><path d="M 18.527344 0.5 C 18.527344 0.5 18.527344 0.554688 18.527344 0.554688 C 19.082031 0.5 19.640625 0.390625 20.140625 0.332031 C 20.472656 0.277344 20.808594 0.222656 21.085938 0.109375 C 21.476562 0 21.585938 -0.277344 21.53125 -0.722656 C 21.476562 -0.945312 21.417969 -1.222656 21.363281 -1.445312 C 21.253906 -2.28125 21.195312 -3.058594 21.03125 -3.894531 C 20.75 -5.675781 20.417969 -7.398438 20.085938 -9.179688 C 19.640625 -11.683594 19.25 -14.1875 18.75 -16.632812 C 18.304688 -18.859375 17.746094 -21.085938 17.136719 -23.253906 C 16.578125 -25.535156 16.023438 -27.816406 15.632812 -30.097656 C 15.1875 -32.546875 14.796875 -34.9375 14.410156 -37.332031 C 14.355469 -37.609375 14.296875 -37.832031 14.1875 -38.109375 C 14.074219 -38.5 13.910156 -38.609375 13.519531 -38.664062 C 12.851562 -38.664062 12.238281 -38.664062 11.628906 -38.5 C 11.460938 -38.386719 11.183594 -38.445312 11.015625 -38.386719 C 10.738281 -38.332031 10.515625 -38.332031 10.238281 -38.277344 C 9.957031 -38.222656 9.734375 -38.164062 9.457031 -38.164062 C 9.125 -38.164062 8.847656 -38 8.734375 -37.664062 C 8.625 -37.441406 8.566406 -37.164062 8.457031 -36.941406 C 8.121094 -35.828125 7.84375 -34.660156 7.621094 -33.492188 C 7.34375 -31.878906 6.953125 -30.265625 6.675781 -28.652344 C 6.398438 -26.984375 6.0625 -25.3125 5.675781 -23.644531 C 5.339844 -22.085938 5.007812 -20.472656 4.671875 -18.859375 C 4.449219 -17.46875 4.226562 -16.078125 3.949219 -14.6875 C 3.503906 -12.519531 2.949219 -10.347656 2.503906 -8.234375 C 2.003906 -5.839844 1.558594 -3.503906 1.113281 -1.113281 C 1.058594 -0.835938 0.945312 -0.554688 0.890625 -0.222656 C 0.835938 0.390625 1 0.554688 1.613281 0.667969 C 2.058594 0.722656 2.503906 0.777344 2.949219 0.777344 C 3.449219 0.835938 3.949219 0.835938 4.449219 0.835938 C 4.839844 0.835938 5.175781 0.613281 5.285156 0.222656 C 5.339844 0 5.398438 -0.167969 5.398438 -0.332031 C 5.617188 -1.390625 5.839844 -2.390625 6.121094 -3.394531 C 6.285156 -3.894531 6.453125 -4.449219 6.566406 -5.007812 C 6.789062 -5.785156 7.011719 -6.621094 7.234375 -7.398438 C 7.289062 -7.566406 7.34375 -7.675781 7.566406 -7.675781 C 7.898438 -7.734375 8.234375 -7.789062 8.566406 -7.789062 C 10.738281 -7.789062 12.960938 -7.789062 15.132812 -7.789062 C 15.355469 -7.789062 15.410156 -7.734375 15.464844 -7.511719 C 15.632812 -6.789062 15.746094 -6.007812 15.910156 -5.285156 C 16.355469 -3.503906 16.800781 -1.78125 17.246094 0 C 17.359375 0.332031 17.46875 0.5 17.859375 0.5 C 18.082031 0.5 18.304688 0.5 18.527344 0.5 Z M 11.183594 -28.152344 C 11.292969 -27.59375 11.40625 -27.039062 11.515625 -26.480469 C 11.90625 -24.144531 12.351562 -21.808594 12.90625 -19.472656 C 13.40625 -17.414062 13.851562 -15.300781 14.355469 -13.242188 C 14.410156 -12.960938 14.410156 -12.683594 14.464844 -12.460938 C 14.519531 -12.238281 14.410156 -12.183594 14.242188 -12.183594 C 13.910156 -12.183594 13.574219 -12.183594 13.296875 -12.183594 C 12.074219 -12.183594 10.960938 -12.128906 9.792969 -12.128906 C 9.234375 -12.128906 8.734375 -12.128906 8.179688 -12.128906 C 7.898438 -12.128906 7.84375 -12.128906 7.898438 -12.40625 C 8.066406 -13.183594 8.179688 -13.964844 8.34375 -14.6875 C 8.734375 -16.46875 9.125 -18.191406 9.511719 -19.972656 C 9.792969 -21.195312 10.125 -22.421875 10.347656 -23.699219 C 10.570312 -24.925781 10.738281 -26.148438 10.90625 -27.371094 C 10.960938 -27.648438 11.015625 -27.871094 11.125 -28.152344 C 11.125 -28.152344 11.183594 -28.152344 11.183594 -28.152344 Z M 11.183594 -28.152344 "/></g></g></g><g fill="#4f50bf" fill-opacity="1"><g transform="translate(154.732776, 317.078694)"><g/></g></g><g fill="#4f50bf" fill-opacity="1"><g transform="translate(163.074762, 317.078694)"><g><path d="M 1.726562 -18.859375 C 1.726562 -18.859375 1.726562 -18.859375 1.667969 -18.859375 C 1.667969 -17.46875 1.667969 -16.078125 1.667969 -14.742188 C 1.667969 -13.019531 1.726562 -11.347656 1.726562 -9.625 C 1.726562 -8.625 1.835938 -7.566406 1.835938 -6.566406 C 1.835938 -4.785156 1.835938 -2.949219 1.890625 -1.167969 C 1.890625 -1.058594 1.890625 -0.945312 1.890625 -0.835938 C 1.890625 -0.613281 2.003906 -0.445312 2.226562 -0.332031 C 2.558594 -0.222656 2.949219 -0.109375 3.339844 -0.0546875 C 4.617188 0.0546875 5.898438 0.0546875 7.121094 0 C 7.789062 0 8.457031 0 9.070312 -0.109375 C 10.238281 -0.332031 11.40625 -0.722656 12.519531 -1.167969 C 13.40625 -1.503906 14.1875 -2.003906 14.855469 -2.671875 C 15.523438 -3.339844 16.132812 -4.0625 16.691406 -4.839844 C 16.96875 -5.175781 17.246094 -5.5625 17.414062 -6.007812 C 17.859375 -6.898438 18.25 -7.789062 18.691406 -8.734375 C 20.140625 -11.960938 20.808594 -15.300781 20.863281 -18.859375 C 20.863281 -20.640625 20.863281 -22.363281 20.695312 -24.144531 C 20.527344 -25.925781 20.363281 -27.707031 19.972656 -29.429688 C 19.527344 -31.488281 18.804688 -33.378906 17.523438 -35.105469 C 16.746094 -36.21875 15.855469 -37.164062 14.6875 -37.832031 C 14.410156 -38 14.132812 -38.109375 13.851562 -38.222656 C 13.574219 -38.386719 13.242188 -38.5 12.960938 -38.554688 C 12.574219 -38.664062 12.183594 -38.777344 11.738281 -38.886719 C 11.515625 -38.945312 11.292969 -39 11.015625 -39.054688 C 10.402344 -39.167969 9.847656 -39.277344 9.234375 -39.332031 C 7.675781 -39.390625 6.0625 -39.390625 4.507812 -39.277344 C 3.949219 -39.222656 3.394531 -39.167969 2.835938 -39.109375 C 2.113281 -39.054688 1.890625 -38.886719 1.835938 -38.164062 C 1.78125 -37.386719 1.726562 -36.609375 1.667969 -35.773438 C 1.667969 -34.382812 1.726562 -32.992188 1.726562 -31.601562 C 1.726562 -27.316406 1.726562 -23.089844 1.726562 -18.859375 Z M 6.453125 -34.660156 C 7.289062 -34.660156 8.121094 -34.714844 8.957031 -34.4375 C 9.070312 -34.382812 9.179688 -34.382812 9.289062 -34.328125 C 11.515625 -34.046875 13.742188 -31.65625 14.296875 -29.652344 C 14.855469 -27.761719 15.355469 -25.8125 15.578125 -23.8125 C 15.6875 -22.976562 15.6875 -22.085938 15.632812 -21.195312 C 15.578125 -19.417969 15.464844 -17.636719 15.355469 -15.855469 C 15.242188 -14.410156 14.855469 -12.960938 14.519531 -11.570312 C 14.296875 -10.515625 13.910156 -9.511719 13.519531 -8.511719 C 13.074219 -7.453125 12.296875 -6.675781 11.40625 -6.007812 C 10.625 -5.453125 9.679688 -5.0625 8.789062 -4.730469 C 8.511719 -4.617188 8.289062 -4.5625 8.011719 -4.5625 C 7.511719 -4.5625 7.011719 -4.5625 6.453125 -4.5625 C 6.007812 -4.617188 5.953125 -4.730469 5.953125 -5.175781 C 5.953125 -7.566406 6.007812 -9.957031 6.0625 -12.40625 C 6.121094 -13.40625 6.121094 -14.464844 6.121094 -15.464844 C 6.175781 -19.195312 6.230469 -22.921875 6.398438 -26.59375 C 6.453125 -27.539062 6.453125 -28.484375 6.453125 -29.429688 C 6.453125 -30.65625 6.453125 -31.878906 6.453125 -33.101562 C 6.507812 -33.601562 6.453125 -34.105469 6.453125 -34.660156 Z M 6.453125 -34.660156 "/></g></g></g><g fill="#4f50bf" fill-opacity="1"><g transform="translate(184.763902, 317.078694)"><g><path d="M 1.78125 -10.238281 C 1.78125 -10.238281 1.78125 -10.238281 1.726562 -10.238281 C 1.726562 -7.675781 1.726562 -5.117188 1.726562 -2.558594 C 1.78125 -1.78125 1.78125 -0.945312 1.835938 -0.109375 C 1.890625 0.445312 2.058594 0.554688 2.613281 0.554688 C 3.339844 0.554688 4.003906 0.554688 4.730469 0.554688 C 5.339844 0.554688 5.953125 0.5 6.566406 0.5 C 7.734375 0.445312 8.902344 0.445312 10.070312 0.445312 C 12.128906 0.5 14.132812 0.5 16.191406 0.554688 C 16.246094 0.554688 16.355469 0.554688 16.414062 0.554688 C 16.800781 0.5 16.914062 0.332031 16.96875 0 C 16.96875 -0.277344 16.96875 -0.5 16.96875 -0.722656 C 16.96875 -1.945312 16.96875 -3.171875 16.96875 -4.394531 C 16.96875 -5.0625 16.746094 -5.230469 16.132812 -5.117188 C 15.800781 -5.0625 15.464844 -5.117188 15.132812 -5.117188 C 14.242188 -5.230469 13.296875 -5.398438 12.351562 -5.398438 C 11.628906 -5.339844 10.847656 -5.453125 10.125 -5.398438 C 9.125 -5.398438 8.179688 -5.398438 7.175781 -5.398438 C 6.621094 -5.398438 6.621094 -5.398438 6.621094 -5.898438 C 6.675781 -6.453125 6.730469 -6.953125 6.730469 -7.511719 C 6.84375 -8.789062 6.898438 -10.070312 6.953125 -11.347656 C 7.066406 -12.90625 7.121094 -14.519531 7.175781 -16.078125 C 7.234375 -16.96875 7.175781 -17.804688 7.175781 -18.636719 C 7.175781 -19.136719 7.175781 -19.136719 7.621094 -19.136719 C 8.511719 -19.195312 9.402344 -19.195312 10.292969 -19.25 C 11.515625 -19.304688 12.683594 -19.417969 13.910156 -19.527344 C 14.410156 -19.582031 14.519531 -19.75 14.519531 -20.25 C 14.578125 -20.75 14.578125 -21.308594 14.578125 -21.808594 C 14.632812 -22.585938 14.6875 -23.367188 14.6875 -24.144531 C 14.6875 -24.757812 14.519531 -24.925781 13.910156 -24.925781 C 12.796875 -24.925781 11.683594 -24.925781 10.515625 -24.867188 C 10.015625 -24.867188 9.511719 -24.8125 9.011719 -24.757812 C 8.402344 -24.703125 7.789062 -24.644531 7.175781 -24.589844 C 7.066406 -24.589844 7.011719 -24.644531 6.953125 -24.757812 C 6.953125 -24.867188 6.953125 -24.980469 6.953125 -25.089844 C 6.953125 -26.316406 6.953125 -27.539062 7.011719 -28.761719 C 7.066406 -30.210938 7.175781 -31.65625 7.289062 -33.15625 C 7.289062 -33.378906 7.34375 -33.4375 7.566406 -33.4375 C 8.566406 -33.492188 9.511719 -33.546875 10.515625 -33.601562 C 11.570312 -33.660156 12.574219 -33.660156 13.628906 -33.714844 C 14.410156 -33.769531 15.1875 -33.882812 15.96875 -33.9375 C 16.414062 -33.992188 16.632812 -34.160156 16.578125 -34.660156 C 16.523438 -34.9375 16.46875 -35.214844 16.46875 -35.496094 C 16.46875 -36.386719 16.46875 -37.273438 16.46875 -38.164062 C 16.46875 -38.832031 16.132812 -39.167969 15.464844 -39.167969 C 15.242188 -39.222656 15.019531 -39.167969 14.742188 -39.167969 C 13.796875 -39.167969 12.796875 -39.054688 11.792969 -39.054688 C 9.679688 -39 7.566406 -39.054688 5.453125 -39 C 4.671875 -39 3.894531 -38.945312 3.171875 -38.886719 C 3.003906 -38.886719 2.835938 -38.832031 2.671875 -38.777344 C 2.226562 -38.664062 2.113281 -38.554688 2.113281 -38.054688 C 2.113281 -37.273438 2.113281 -36.441406 2.058594 -35.660156 C 1.945312 -33.269531 1.835938 -30.820312 1.726562 -28.429688 C 1.667969 -26.761719 1.667969 -25.089844 1.667969 -23.421875 C 1.667969 -21.863281 1.78125 -20.304688 1.78125 -18.75 C 1.78125 -15.910156 1.78125 -13.074219 1.78125 -10.238281 Z M 1.78125 -10.238281 "/></g></g></g><g fill="#4f50bf" fill-opacity="1"><g transform="translate(203.394322, 317.078694)"><g/></g></g><g fill="#4f50bf" fill-opacity="1"><g transform="translate(211.736308, 317.078694)"><g><path d="M 1.945312 -30.375 C 1.945312 -29.429688 1.945312 -28.484375 1.945312 -27.539062 C 1.890625 -25.425781 1.835938 -23.367188 1.78125 -21.253906 C 1.726562 -18.859375 1.667969 -16.414062 1.667969 -14.019531 C 1.667969 -12.40625 1.726562 -10.792969 1.78125 -9.179688 C 1.835938 -6.730469 1.835938 -4.285156 1.890625 -1.835938 C 1.890625 -1 1.890625 -0.222656 1.945312 0.613281 C 1.945312 1.113281 2.113281 1.222656 2.613281 1.167969 C 3.003906 1.113281 3.394531 1.058594 3.78125 1 C 4.394531 0.890625 4.953125 0.777344 5.5625 0.722656 C 6.007812 0.667969 6.121094 0.613281 6.175781 0.109375 C 6.175781 -1.058594 6.175781 -2.28125 6.230469 -3.449219 C 6.230469 -6.0625 6.230469 -8.625 6.230469 -11.238281 C 6.230469 -11.683594 6.230469 -11.683594 6.621094 -11.683594 C 7.621094 -11.683594 8.566406 -11.683594 9.570312 -11.683594 C 9.847656 -11.738281 9.957031 -11.628906 10.015625 -11.40625 C 10.070312 -11.183594 10.179688 -11.015625 10.292969 -10.847656 C 10.960938 -9.902344 11.292969 -8.789062 11.851562 -7.789062 C 12.296875 -6.898438 12.683594 -5.898438 13.074219 -5.007812 C 13.40625 -4.394531 13.742188 -3.839844 14.019531 -3.226562 C 14.464844 -2.167969 14.910156 -1.167969 15.355469 -0.167969 C 15.523438 0.222656 15.800781 0.390625 16.246094 0.332031 C 16.355469 0.332031 16.523438 0.332031 16.691406 0.277344 C 17.691406 0.222656 18.691406 0.222656 19.695312 0.109375 C 20.195312 0.0546875 20.304688 -0.167969 20.195312 -0.613281 C 20.027344 -1.058594 19.917969 -1.445312 19.75 -1.835938 C 19.082031 -3.394531 18.359375 -4.953125 17.691406 -6.507812 C 17.582031 -6.789062 17.523438 -7.066406 17.414062 -7.34375 C 17.246094 -7.789062 17.078125 -8.289062 16.855469 -8.734375 C 16.300781 -9.957031 15.632812 -11.183594 15.078125 -12.40625 C 14.910156 -12.742188 14.910156 -12.683594 15.1875 -12.90625 C 15.523438 -13.128906 15.855469 -13.40625 16.191406 -13.6875 C 17.023438 -14.464844 17.636719 -15.464844 18.082031 -16.523438 C 18.414062 -17.246094 18.691406 -18.082031 19.027344 -18.859375 C 19.75 -20.640625 20.027344 -22.53125 20.140625 -24.480469 C 20.25 -26.148438 19.972656 -27.816406 19.804688 -29.429688 C 19.75 -30.65625 19.582031 -31.878906 19.195312 -33.046875 C 19.027344 -33.492188 18.914062 -33.9375 18.804688 -34.382812 C 18.691406 -34.882812 18.46875 -35.273438 18.136719 -35.605469 C 17.582031 -36.273438 17.023438 -36.941406 16.300781 -37.441406 C 15.800781 -37.832031 15.300781 -38.164062 14.742188 -38.332031 C 14.019531 -38.609375 13.242188 -38.777344 12.460938 -38.722656 C 12.238281 -38.722656 12.074219 -38.777344 11.851562 -38.777344 C 10.515625 -38.777344 9.179688 -38.777344 7.789062 -38.777344 C 6.789062 -38.722656 5.785156 -38.609375 4.730469 -38.664062 C 4.117188 -38.722656 3.503906 -38.722656 2.835938 -38.722656 C 2.726562 -38.722656 2.558594 -38.722656 2.390625 -38.664062 C 2.058594 -38.609375 1.890625 -38.445312 1.890625 -38.054688 C 1.890625 -35.496094 1.726562 -32.9375 1.945312 -30.375 Z M 6.285156 -24.035156 C 6.121094 -26.539062 6.285156 -29.097656 6.34375 -31.65625 C 6.34375 -32.378906 6.34375 -33.15625 6.398438 -33.882812 C 6.398438 -34.214844 6.398438 -34.269531 6.730469 -34.269531 C 7.566406 -34.382812 8.34375 -34.269531 9.125 -34.105469 C 9.734375 -33.992188 10.402344 -33.882812 11.015625 -33.660156 C 12.460938 -33.269531 13.628906 -32.492188 14.242188 -30.988281 C 14.632812 -29.988281 14.964844 -28.929688 15.1875 -27.871094 C 15.355469 -26.761719 15.523438 -25.59375 15.632812 -24.421875 C 15.746094 -23.3125 15.464844 -22.199219 15.132812 -21.085938 C 14.855469 -20.140625 14.519531 -19.25 14.019531 -18.359375 C 13.574219 -17.523438 12.90625 -16.855469 11.960938 -16.523438 C 11.238281 -16.246094 10.460938 -16.078125 9.679688 -15.910156 C 8.734375 -15.746094 7.734375 -15.6875 6.730469 -15.6875 C 6.453125 -15.6875 6.453125 -15.855469 6.453125 -16.023438 C 6.453125 -17.023438 6.453125 -18.027344 6.453125 -19.027344 C 6.398438 -20.640625 6.34375 -22.308594 6.285156 -24.035156 Z M 6.285156 -24.035156 "/></g></g></g><g fill="#4f50bf" fill-opacity="1"><g transform="translate(233.647898, 317.078694)"><g><path d="M 18.527344 0.5 C 18.527344 0.5 18.527344 0.554688 18.527344 0.554688 C 19.082031 0.5 19.640625 0.390625 20.140625 0.332031 C 20.472656 0.277344 20.808594 0.222656 21.085938 0.109375 C 21.476562 0 21.585938 -0.277344 21.53125 -0.722656 C 21.476562 -0.945312 21.417969 -1.222656 21.363281 -1.445312 C 21.253906 -2.28125 21.195312 -3.058594 21.03125 -3.894531 C 20.75 -5.675781 20.417969 -7.398438 20.085938 -9.179688 C 19.640625 -11.683594 19.25 -14.1875 18.75 -16.632812 C 18.304688 -18.859375 17.746094 -21.085938 17.136719 -23.253906 C 16.578125 -25.535156 16.023438 -27.816406 15.632812 -30.097656 C 15.1875 -32.546875 14.796875 -34.9375 14.410156 -37.332031 C 14.355469 -37.609375 14.296875 -37.832031 14.1875 -38.109375 C 14.074219 -38.5 13.910156 -38.609375 13.519531 -38.664062 C 12.851562 -38.664062 12.238281 -38.664062 11.628906 -38.5 C 11.460938 -38.386719 11.183594 -38.445312 11.015625 -38.386719 C 10.738281 -38.332031 10.515625 -38.332031 10.238281 -38.277344 C 9.957031 -38.222656 9.734375 -38.164062 9.457031 -38.164062 C 9.125 -38.164062 8.847656 -38 8.734375 -37.664062 C 8.625 -37.441406 8.566406 -37.164062 8.457031 -36.941406 C 8.121094 -35.828125 7.84375 -34.660156 7.621094 -33.492188 C 7.34375 -31.878906 6.953125 -30.265625 6.675781 -28.652344 C 6.398438 -26.984375 6.0625 -25.3125 5.675781 -23.644531 C 5.339844 -22.085938 5.007812 -20.472656 4.671875 -18.859375 C 4.449219 -17.46875 4.226562 -16.078125 3.949219 -14.6875 C 3.503906 -12.519531 2.949219 -10.347656 2.503906 -8.234375 C 2.003906 -5.839844 1.558594 -3.503906 1.113281 -1.113281 C 1.058594 -0.835938 0.945312 -0.554688 0.890625 -0.222656 C 0.835938 0.390625 1 0.554688 1.613281 0.667969 C 2.058594 0.722656 2.503906 0.777344 2.949219 0.777344 C 3.449219 0.835938 3.949219 0.835938 4.449219 0.835938 C 4.839844 0.835938 5.175781 0.613281 5.285156 0.222656 C 5.339844 0 5.398438 -0.167969 5.398438 -0.332031 C 5.617188 -1.390625 5.839844 -2.390625 6.121094 -3.394531 C 6.285156 -3.894531 6.453125 -4.449219 6.566406 -5.007812 C 6.789062 -5.785156 7.011719 -6.621094 7.234375 -7.398438 C 7.289062 -7.566406 7.34375 -7.675781 7.566406 -7.675781 C 7.898438 -7.734375 8.234375 -7.789062 8.566406 -7.789062 C 10.738281 -7.789062 12.960938 -7.789062 15.132812 -7.789062 C 15.355469 -7.789062 15.410156 -7.734375 15.464844 -7.511719 C 15.632812 -6.789062 15.746094 -6.007812 15.910156 -5.285156 C 16.355469 -3.503906 16.800781 -1.78125 17.246094 0 C 17.359375 0.332031 17.46875 0.5 17.859375 0.5 C 18.082031 0.5 18.304688 0.5 18.527344 0.5 Z M 11.183594 -28.152344 C 11.292969 -27.59375 11.40625 -27.039062 11.515625 -26.480469 C 11.90625 -24.144531 12.351562 -21.808594 12.90625 -19.472656 C 13.40625 -17.414062 13.851562 -15.300781 14.355469 -13.242188 C 14.410156 -12.960938 14.410156 -12.683594 14.464844 -12.460938 C 14.519531 -12.238281 14.410156 -12.183594 14.242188 -12.183594 C 13.910156 -12.183594 13.574219 -12.183594 13.296875 -12.183594 C 12.074219 -12.183594 10.960938 -12.128906 9.792969 -12.128906 C 9.234375 -12.128906 8.734375 -12.128906 8.179688 -12.128906 C 7.898438 -12.128906 7.84375 -12.128906 7.898438 -12.40625 C 8.066406 -13.183594 8.179688 -13.964844 8.34375 -14.6875 C 8.734375 -16.46875 9.125 -18.191406 9.511719 -19.972656 C 9.792969 -21.195312 10.125 -22.421875 10.347656 -23.699219 C 10.570312 -24.925781 10.738281 -26.148438 10.90625 -27.371094 C 10.960938 -27.648438 11.015625 -27.871094 11.125 -28.152344 C 11.125 -28.152344 11.183594 -28.152344 11.183594 -28.152344 Z M 11.183594 -28.152344 "/></g></g></g><g fill="#4f50bf" fill-opacity="1"><g transform="translate(256.060012, 317.078694)"><g><path d="M 1.667969 -17.246094 C 1.667969 -14.074219 1.890625 -11.90625 2.449219 -9.734375 C 2.558594 -9.402344 2.613281 -9.070312 2.671875 -8.789062 C 2.835938 -8.179688 2.949219 -7.621094 3.117188 -7.066406 C 3.449219 -6.121094 3.839844 -5.230469 4.394531 -4.507812 C 5.175781 -3.5625 5.898438 -2.613281 6.84375 -1.890625 C 7.675781 -1.222656 8.566406 -0.722656 9.625 -0.390625 C 9.902344 -0.277344 10.179688 -0.222656 10.460938 -0.109375 C 11.960938 0.390625 13.464844 0.390625 14.910156 0 C 15.910156 -0.277344 16.746094 -0.835938 17.46875 -1.558594 C 17.96875 -1.945312 18.359375 -2.449219 18.804688 -2.894531 C 19.417969 -3.449219 19.804688 -4.0625 20.195312 -4.730469 C 20.472656 -5.230469 20.363281 -5.617188 19.972656 -6.007812 C 19.417969 -6.507812 18.804688 -7.011719 18.25 -7.511719 C 17.914062 -7.789062 17.636719 -7.734375 17.359375 -7.398438 C 17.078125 -7.011719 16.746094 -6.675781 16.46875 -6.285156 C 16.023438 -5.617188 15.300781 -5.230469 14.6875 -4.785156 C 14.296875 -4.5625 13.964844 -4.507812 13.519531 -4.507812 C 12.40625 -4.507812 11.292969 -4.785156 10.238281 -5.117188 C 9.902344 -5.230469 9.570312 -5.398438 9.289062 -5.617188 C 8.179688 -6.566406 7.453125 -7.734375 7.011719 -9.179688 C 6.621094 -10.402344 6.453125 -11.738281 6.285156 -13.019531 C 6.175781 -14.296875 6.007812 -15.523438 6.0625 -16.746094 C 6.0625 -17.46875 6.121094 -18.191406 6.121094 -18.859375 C 6.230469 -20.585938 6.398438 -22.253906 6.789062 -23.867188 C 7.175781 -25.648438 7.734375 -27.371094 8.402344 -29.097656 C 8.679688 -29.765625 8.957031 -30.433594 9.234375 -31.101562 C 9.347656 -31.265625 9.402344 -31.433594 9.511719 -31.542969 C 9.957031 -31.988281 10.347656 -32.433594 10.792969 -32.878906 C 11.292969 -33.378906 11.851562 -33.714844 12.574219 -33.601562 C 13.296875 -33.546875 13.964844 -33.492188 14.519531 -33.046875 C 14.964844 -32.65625 15.410156 -32.324219 15.855469 -31.988281 C 16.191406 -31.765625 16.46875 -31.488281 16.578125 -31.042969 C 16.632812 -30.878906 16.746094 -30.710938 16.914062 -30.542969 C 17.191406 -30.210938 17.582031 -30.210938 17.914062 -30.542969 C 18.359375 -30.933594 18.75 -31.378906 19.195312 -31.824219 C 19.359375 -32.046875 19.527344 -32.269531 19.695312 -32.546875 C 19.863281 -32.824219 19.917969 -33.15625 19.75 -33.4375 C 19.472656 -33.882812 19.195312 -34.328125 18.859375 -34.660156 C 18.25 -35.328125 17.582031 -35.941406 16.96875 -36.550781 C 16.578125 -36.941406 16.132812 -37.332031 15.6875 -37.664062 C 15.132812 -38.109375 14.519531 -38.5 13.796875 -38.609375 C 12.574219 -38.886719 11.347656 -38.609375 10.238281 -38.164062 C 8.902344 -37.609375 7.898438 -36.664062 7.011719 -35.660156 C 6.398438 -34.992188 5.785156 -34.328125 5.453125 -33.546875 C 5.007812 -32.65625 4.617188 -31.824219 4.171875 -30.988281 C 3.617188 -29.820312 3.226562 -28.597656 2.949219 -27.371094 C 2.503906 -25.535156 2.226562 -23.757812 2.003906 -21.863281 C 1.78125 -20.027344 1.667969 -18.191406 1.667969 -17.246094 Z M 10.90625 12.296875 C 11.460938 12.296875 11.960938 12.183594 12.40625 11.90625 C 12.960938 11.570312 13.296875 11.070312 13.464844 10.402344 C 13.628906 9.734375 13.742188 8.957031 13.796875 8.234375 C 13.910156 7.566406 13.851562 6.84375 13.6875 6.175781 C 13.40625 5.398438 13.074219 4.730469 12.40625 4.226562 C 12.238281 4.0625 12.238281 3.949219 12.238281 3.726562 C 12.296875 3.394531 12.40625 3.003906 12.460938 2.613281 C 12.519531 2.335938 12.40625 2.113281 12.128906 2.058594 C 11.683594 1.890625 11.238281 1.726562 10.792969 1.613281 C 10.460938 1.503906 10.179688 1.667969 10.015625 1.945312 C 9.957031 2.113281 9.957031 2.226562 9.902344 2.335938 C 9.734375 3.226562 9.511719 4.0625 9.347656 4.953125 C 9.289062 5.230469 9.234375 5.507812 9.234375 5.839844 C 9.179688 6.34375 9.402344 6.621094 9.847656 6.730469 C 10.070312 6.84375 10.292969 6.898438 10.515625 7.011719 C 10.847656 7.175781 10.847656 7.957031 10.570312 8.179688 C 10.515625 8.179688 10.460938 8.234375 10.347656 8.234375 C 10.015625 8.234375 9.679688 8.234375 9.289062 8.179688 C 8.847656 8.121094 8.625 8.179688 8.511719 8.625 C 8.402344 9.402344 8.289062 10.125 8.121094 10.90625 C 8.066406 11.292969 8.234375 11.570312 8.566406 11.683594 C 9.289062 12.015625 10.070312 12.296875 10.90625 12.296875 Z M 10.90625 12.296875 "/></g></g></g><g fill="#4f50bf" fill-opacity="1"><g transform="translate(278.082827, 317.078694)"><g><path d="M 19.359375 0.5 C 19.359375 0.5 19.359375 0.554688 19.359375 0.554688 C 19.917969 0.5 20.472656 0.390625 20.972656 0.332031 C 21.308594 0.277344 21.640625 0.222656 21.921875 0.109375 C 22.308594 0 22.421875 -0.277344 22.363281 -0.722656 C 22.308594 -0.945312 22.253906 -1.222656 22.199219 -1.445312 C 22.085938 -2.28125 22.03125 -3.058594 21.863281 -3.894531 C 21.585938 -5.675781 21.253906 -7.398438 20.917969 -9.179688 C 20.472656 -11.683594 20.085938 -14.1875 19.582031 -16.632812 C 19.136719 -18.859375 18.582031 -21.085938 17.96875 -23.253906 C 17.414062 -25.535156 16.855469 -27.816406 16.46875 -30.097656 C 16.023438 -32.546875 15.632812 -34.9375 15.242188 -37.332031 C 15.1875 -37.609375 15.132812 -37.832031 15.019531 -38.109375 C 14.910156 -38.5 14.742188 -38.609375 14.355469 -38.664062 C 13.6875 -38.664062 13.074219 -38.664062 12.460938 -38.5 C 12.296875 -38.386719 12.015625 -38.445312 11.851562 -38.386719 C 11.570312 -38.332031 11.347656 -38.332031 11.070312 -38.277344 C 10.792969 -38.222656 10.570312 -38.164062 10.292969 -38.164062 C 9.957031 -38.164062 9.679688 -38 9.570312 -37.664062 C 9.457031 -37.441406 9.402344 -37.164062 9.289062 -36.941406 C 8.957031 -35.828125 8.679688 -34.660156 8.457031 -33.492188 C 8.179688 -31.878906 7.789062 -30.265625 7.511719 -28.652344 C 7.234375 -26.984375 6.898438 -25.3125 6.507812 -23.644531 C 6.175781 -22.085938 5.839844 -20.472656 5.507812 -18.859375 C 5.285156 -17.46875 5.0625 -16.078125 4.785156 -14.6875 C 4.339844 -12.519531 3.78125 -10.347656 3.339844 -8.234375 C 2.835938 -5.839844 2.390625 -3.503906 1.945312 -1.113281 C 1.890625 -0.835938 1.78125 -0.554688 1.726562 -0.222656 C 1.667969 0.390625 1.835938 0.554688 2.449219 0.667969 C 2.894531 0.722656 3.339844 0.777344 3.78125 0.777344 C 4.285156 0.835938 4.785156 0.835938 5.285156 0.835938 C 5.675781 0.835938 6.007812 0.613281 6.121094 0.222656 C 6.175781 0 6.230469 -0.167969 6.230469 -0.332031 C 6.453125 -1.390625 6.675781 -2.390625 6.953125 -3.394531 C 7.121094 -3.894531 7.289062 -4.449219 7.398438 -5.007812 C 7.621094 -5.785156 7.84375 -6.621094 8.066406 -7.398438 C 8.121094 -7.566406 8.179688 -7.675781 8.402344 -7.675781 C 8.734375 -7.734375 9.070312 -7.789062 9.402344 -7.789062 C 11.570312 -7.789062 13.796875 -7.789062 15.96875 -7.789062 C 16.191406 -7.789062 16.246094 -7.734375 16.300781 -7.511719 C 16.46875 -6.789062 16.578125 -6.007812 16.746094 -5.285156 C 17.191406 -3.503906 17.636719 -1.78125 18.082031 0 C 18.191406 0.332031 18.304688 0.5 18.691406 0.5 C 18.914062 0.5 19.136719 0.5 19.359375 0.5 Z M 12.015625 -28.152344 C 12.128906 -27.59375 12.238281 -27.039062 12.351562 -26.480469 C 12.742188 -24.144531 13.183594 -21.808594 13.742188 -19.472656 C 14.242188 -17.414062 14.6875 -15.300781 15.1875 -13.242188 C 15.242188 -12.960938 15.242188 -12.683594 15.300781 -12.460938 C 15.355469 -12.238281 15.242188 -12.183594 15.078125 -12.183594 C 14.742188 -12.183594 14.410156 -12.183594 14.132812 -12.183594 C 12.90625 -12.183594 11.792969 -12.128906 10.625 -12.128906 C 10.070312 -12.128906 9.570312 -12.128906 9.011719 -12.128906 C 8.734375 -12.128906 8.679688 -12.128906 8.734375 -12.40625 C 8.902344 -13.183594 9.011719 -13.964844 9.179688 -14.6875 C 9.570312 -16.46875 9.957031 -18.191406 10.347656 -19.972656 C 10.625 -21.195312 10.960938 -22.421875 11.183594 -23.699219 C 11.40625 -24.925781 11.570312 -26.148438 11.738281 -27.371094 C 11.792969 -27.648438 11.851562 -27.871094 11.960938 -28.152344 C 11.960938 -28.152344 12.015625 -28.152344 12.015625 -28.152344 Z M 10.238281 -47.066406 C 9.734375 -47.066406 9.289062 -46.957031 8.847656 -46.734375 C 8.457031 -46.511719 8.121094 -46.230469 7.734375 -46.066406 C 6.507812 -45.34375 5.675781 -44.285156 5.007812 -43.117188 C 4.839844 -42.78125 4.894531 -42.503906 5.175781 -42.226562 C 5.507812 -41.949219 5.785156 -41.671875 6.121094 -41.449219 C 6.453125 -41.226562 6.789062 -41.058594 7.121094 -40.835938 C 7.398438 -40.722656 7.621094 -40.722656 7.898438 -40.945312 C 8.234375 -41.335938 8.625 -41.671875 8.957031 -42.058594 C 9.347656 -42.503906 9.792969 -42.949219 10.460938 -42.78125 C 10.847656 -42.726562 11.238281 -42.617188 11.570312 -42.449219 C 12.351562 -42.171875 13.074219 -41.835938 13.851562 -41.613281 C 14.910156 -41.226562 15.910156 -41.390625 16.746094 -42.171875 C 17.078125 -42.503906 17.359375 -42.894531 17.636719 -43.226562 C 17.96875 -43.730469 18.304688 -44.230469 18.636719 -44.730469 C 19.25 -45.566406 18.972656 -46.007812 18.25 -46.511719 C 18.136719 -46.566406 18.082031 -46.621094 17.96875 -46.621094 C 17.636719 -46.789062 17.300781 -46.957031 16.96875 -47.121094 C 16.46875 -47.457031 15.96875 -47.402344 15.523438 -47.011719 C 15.242188 -46.789062 14.964844 -46.511719 14.6875 -46.230469 C 14.519531 -46.066406 14.296875 -45.84375 14.074219 -45.675781 C 13.851562 -45.453125 13.574219 -45.398438 13.242188 -45.566406 C 12.628906 -45.953125 11.960938 -46.34375 11.347656 -46.734375 C 11.015625 -46.957031 10.625 -47.066406 10.238281 -47.066406 Z M 10.238281 -47.066406 "/></g></g></g><g fill="#4f50bf" fill-opacity="1"><g transform="translate(302.163338, 317.078694)"><g><path d="M 20.863281 -17.914062 C 20.863281 -19.027344 20.863281 -20.195312 20.863281 -21.363281 C 20.863281 -21.476562 20.808594 -21.585938 20.808594 -21.753906 C 20.695312 -22.753906 20.640625 -23.8125 20.585938 -24.867188 C 20.472656 -25.871094 20.417969 -26.816406 20.304688 -27.816406 C 20.027344 -29.820312 19.582031 -31.824219 18.859375 -33.714844 C 18.582031 -34.550781 18.25 -35.328125 17.636719 -35.996094 C 17.136719 -36.609375 16.523438 -37.164062 15.910156 -37.609375 C 15.132812 -38.164062 14.355469 -38.609375 13.464844 -38.886719 C 12.128906 -39.332031 10.738281 -39.167969 9.347656 -38.945312 C 8.957031 -38.886719 8.566406 -38.722656 8.179688 -38.664062 C 7.621094 -38.664062 7.121094 -38.386719 6.730469 -38.054688 C 5.785156 -37.273438 5.117188 -36.273438 4.5625 -35.214844 C 4.117188 -34.328125 3.726562 -33.4375 3.339844 -32.492188 C 2.894531 -31.542969 2.503906 -30.597656 2.226562 -29.597656 C 1.835938 -28.207031 1.503906 -26.816406 1.28125 -25.371094 C 0.945312 -23.867188 0.945312 -22.363281 0.890625 -20.863281 C 0.835938 -18.691406 0.945312 -16.578125 1.058594 -14.410156 C 1.058594 -14.132812 1.113281 -13.796875 1.113281 -13.519531 C 1.222656 -12.40625 1.390625 -11.347656 1.503906 -10.238281 C 1.613281 -9.179688 1.835938 -8.179688 2.113281 -7.175781 C 2.449219 -5.953125 2.949219 -4.785156 3.503906 -3.671875 C 4.0625 -2.671875 4.894531 -1.890625 5.953125 -1.445312 C 6.730469 -1.058594 7.511719 -0.835938 8.34375 -0.554688 C 8.457031 -0.5 8.625 -0.445312 8.789062 -0.445312 C 9.847656 -0.445312 10.90625 -0.332031 11.960938 -0.613281 C 12.796875 -0.835938 13.574219 -1.058594 14.355469 -1.558594 C 15.464844 -2.28125 16.523438 -3.058594 17.191406 -4.226562 C 17.691406 -4.953125 18.136719 -5.785156 18.414062 -6.621094 C 19.195312 -8.511719 19.863281 -10.515625 20.195312 -12.519531 C 20.472656 -14.1875 20.808594 -15.800781 20.808594 -17.46875 C 20.808594 -17.582031 20.863281 -17.746094 20.863281 -17.914062 Z M 15.6875 -19.972656 C 15.578125 -18.527344 15.523438 -17.023438 15.464844 -15.578125 C 15.355469 -14.074219 15.078125 -12.574219 14.6875 -11.070312 C 14.355469 -9.734375 13.6875 -8.566406 12.851562 -7.511719 C 12.574219 -7.175781 12.128906 -6.898438 11.738281 -6.621094 C 11.628906 -6.566406 11.460938 -6.507812 11.292969 -6.507812 C 10.515625 -6.398438 9.792969 -6.453125 9.070312 -6.621094 C 8.34375 -6.675781 7.789062 -7.066406 7.511719 -7.675781 C 7.175781 -8.289062 6.84375 -8.957031 6.566406 -9.625 C 6.175781 -10.683594 5.953125 -11.738281 5.898438 -12.851562 C 5.785156 -13.796875 5.785156 -14.742188 5.785156 -15.6875 C 5.785156 -17.914062 5.785156 -20.195312 5.898438 -22.476562 C 5.898438 -23.3125 6.007812 -24.144531 6.121094 -24.980469 C 6.230469 -25.871094 6.285156 -26.703125 6.507812 -27.539062 C 6.789062 -28.820312 7.121094 -30.097656 7.675781 -31.320312 C 8.066406 -32.046875 8.566406 -32.65625 9.347656 -32.9375 C 9.457031 -32.9375 9.570312 -33.046875 9.679688 -33.046875 C 10.125 -33.214844 10.515625 -33.324219 10.960938 -33.15625 C 11.070312 -33.101562 11.238281 -33.046875 11.347656 -33.046875 C 12.238281 -32.9375 12.796875 -32.378906 13.296875 -31.710938 C 13.6875 -31.210938 13.964844 -30.597656 14.242188 -29.988281 C 14.519531 -29.375 14.742188 -28.707031 14.910156 -28.039062 C 15.132812 -27.207031 15.300781 -26.316406 15.464844 -25.425781 C 15.6875 -23.589844 15.632812 -21.808594 15.6875 -19.972656 Z M 15.6875 -19.972656 "/></g></g></g></svg>