<svg xmlns="http://www.w3.org/2000/svg" xmlns:xlink="http://www.w3.org/1999/xlink" width="500" zoomAndPan="magnify" viewBox="0 0 375 374.999991" height="500" preserveAspectRatio="xMidYMid meet" version="1.0"><defs><clipPath id="b28a9988b5"><path d="M 88 55.476562 L 287 55.476562 L 287 318 L 88 318 Z M 88 55.476562 " clip-rule="nonzero"/></clipPath></defs><rect x="-37.5" width="450" fill="#ffffff" y="-37.499999" height="449.999989" fill-opacity="1"/><rect x="-37.5" width="450" fill="#ffffff" y="-37.499999" height="449.999989" fill-opacity="1"/><rect x="-37.5" width="450" fill="#ffffff" y="-37.499999" height="449.999989" fill-opacity="1"/><g clip-path="url(#b28a9988b5)"><path fill="#d16a47" d="M 118.542969 55.46875 C 118.542969 55.46875 119.601562 67.128906 118.542969 72.433594 C 117.480469 77.734375 95.230469 126.503906 91.519531 141.34375 C 87.8125 156.1875 86.222656 287.652344 91.519531 293.484375 C 96.820312 299.3125 105.296875 300.90625 128.605469 303.023438 C 151.917969 305.144531 217.082031 319.457031 236.15625 317.339844 C 255.226562 315.21875 281.1875 301.964844 284.898438 296.664062 C 288.605469 291.363281 285.425781 157.25 284.898438 141.34375 C 284.367188 125.441406 262.644531 74.550781 262.644531 71.902344 C 262.644531 69.25 264.234375 55.46875 264.234375 55.46875 L 118.542969 55.46875 " fill-opacity="1" fill-rule="nonzero"/></g><path fill="#3f434c" d="M 235.625 313.125 C 234.746094 313.125 234.023438 312.414062 234.011719 311.53125 C 234.003906 311.074219 233.34375 265.542969 233.015625 220.144531 C 232.351562 127.777344 233.625 125.992188 234.3125 125.03125 C 236.417969 122.082031 254.429688 85.171875 261.191406 71.195312 C 261.578125 70.394531 262.546875 70.054688 263.347656 70.445312 C 264.152344 70.835938 264.488281 71.804688 264.097656 72.605469 C 263.113281 74.644531 240.203125 121.96875 237.046875 126.753906 C 235.308594 133.050781 236.207031 240.464844 237.242188 311.484375 C 237.253906 312.375 236.542969 313.109375 235.648438 313.125 L 235.625 313.125 " fill-opacity="1" fill-rule="nonzero"/><path fill="#f19d72" d="M 211.980469 186.511719 L 204.574219 194.765625 L 208.726562 205.050781 L 198.933594 210.261719 L 199.308594 221.347656 L 188.328125 222.898438 L 184.902344 233.453125 L 174.054688 231.160156 L 167.21875 239.890625 L 157.816406 234.007812 L 148.410156 239.890625 L 141.574219 231.160156 L 130.726562 233.453125 L 127.300781 222.898438 L 116.320312 221.347656 L 116.695312 210.261719 L 106.902344 205.050781 L 111.058594 194.765625 L 103.648438 186.511719 L 111.058594 178.257812 L 106.902344 167.96875 L 116.695312 162.757812 L 116.320312 151.671875 L 127.300781 150.121094 L 130.726562 139.570312 L 141.574219 141.863281 L 148.410156 133.128906 L 157.816406 139.011719 L 167.21875 133.128906 L 174.054688 141.863281 L 184.90625 139.570312 L 188.328125 150.121094 L 199.308594 151.671875 L 198.9375 162.761719 L 208.726562 167.96875 L 204.574219 178.253906 L 211.980469 186.511719 " fill-opacity="1" fill-rule="nonzero"/><path fill="#ffd5b8" d="M 243.96875 281.945312 L 245.957031 305.011719 L 278.539062 293.480469 L 278.539062 271.21875 L 243.96875 281.945312 " fill-opacity="1" fill-rule="nonzero"/><path fill="#fcf8eb" d="M 138.578125 180.050781 L 177.042969 179.132812 C 177.042969 179.132812 174.898438 168.410156 186.5625 170.535156 C 198.230469 172.660156 187.316406 186.371094 187.316406 186.371094 C 187.316406 186.371094 197.820312 189.65625 194.355469 199.277344 C 190.890625 208.894531 177.847656 194.773438 177.847656 194.773438 L 138.222656 194.527344 C 138.222656 194.527344 133.292969 205.648438 125.058594 200.230469 C 116.820312 194.816406 128.648438 187.058594 128.648438 187.058594 C 128.648438 187.058594 114.371094 177.460938 124 173.117188 C 133.628906 168.769531 138.578125 180.050781 138.578125 180.050781 " fill-opacity="1" fill-rule="nonzero"/><path fill="#3f434c" d="M 130.535156 72.871094 L 122.777344 72.871094 C 122.246094 72.871094 121.808594 72.4375 121.808594 71.902344 C 121.808594 71.367188 122.246094 70.933594 122.777344 70.933594 L 130.535156 70.933594 C 131.070312 70.933594 131.503906 71.367188 131.503906 71.902344 C 131.503906 72.4375 131.070312 72.871094 130.535156 72.871094 Z M 146.046875 72.871094 L 138.292969 72.871094 C 137.757812 72.871094 137.324219 72.4375 137.324219 71.902344 C 137.324219 71.367188 137.757812 70.933594 138.292969 70.933594 L 146.046875 70.933594 C 146.582031 70.933594 147.015625 71.367188 147.015625 71.902344 C 147.015625 72.4375 146.582031 72.871094 146.046875 72.871094 Z M 161.558594 72.871094 L 153.804688 72.871094 C 153.269531 72.871094 152.832031 72.4375 152.832031 71.902344 C 152.832031 71.367188 153.269531 70.933594 153.804688 70.933594 L 161.558594 70.933594 C 162.09375 70.933594 162.527344 71.367188 162.527344 71.902344 C 162.527344 72.4375 162.09375 72.871094 161.558594 72.871094 Z M 177.070312 72.871094 L 169.316406 72.871094 C 168.78125 72.871094 168.347656 72.4375 168.347656 71.902344 C 168.347656 71.367188 168.78125 70.933594 169.316406 70.933594 L 177.070312 70.933594 C 177.605469 70.933594 178.039062 71.367188 178.039062 71.902344 C 178.039062 72.4375 177.605469 72.871094 177.070312 72.871094 Z M 192.582031 72.871094 L 184.824219 72.871094 C 184.289062 72.871094 183.859375 72.4375 183.859375 71.902344 C 183.859375 71.367188 184.289062 70.933594 184.824219 70.933594 L 192.582031 70.933594 C 193.117188 70.933594 193.550781 71.367188 193.550781 71.902344 C 193.550781 72.4375 193.117188 72.871094 192.582031 72.871094 Z M 208.09375 72.871094 L 200.339844 72.871094 C 199.804688 72.871094 199.371094 72.4375 199.371094 71.902344 C 199.371094 71.367188 199.804688 70.933594 200.339844 70.933594 L 208.09375 70.933594 C 208.628906 70.933594 209.0625 71.367188 209.0625 71.902344 C 209.0625 72.4375 208.628906 72.871094 208.09375 72.871094 Z M 223.605469 72.871094 L 215.851562 72.871094 C 215.316406 72.871094 214.882812 72.4375 214.882812 71.902344 C 214.882812 71.367188 215.316406 70.933594 215.851562 70.933594 L 223.605469 70.933594 C 224.140625 70.933594 224.574219 71.367188 224.574219 71.902344 C 224.574219 72.4375 224.140625 72.871094 223.605469 72.871094 Z M 239.117188 72.871094 L 231.363281 72.871094 C 230.828125 72.871094 230.394531 72.4375 230.394531 71.902344 C 230.394531 71.367188 230.828125 70.933594 231.363281 70.933594 L 239.117188 70.933594 C 239.652344 70.933594 240.085938 71.367188 240.085938 71.902344 C 240.085938 72.4375 239.652344 72.871094 239.117188 72.871094 Z M 254.628906 72.871094 L 246.875 72.871094 C 246.339844 72.871094 245.90625 72.4375 245.90625 71.902344 C 245.90625 71.367188 246.339844 70.933594 246.875 70.933594 L 254.628906 70.933594 C 255.164062 70.933594 255.597656 71.367188 255.597656 71.902344 C 255.597656 72.4375 255.164062 72.871094 254.628906 72.871094 " fill-opacity="1" fill-rule="nonzero"/></svg>